<svg xmlns="http://www.w3.org/2000/svg" viewBox="0 0 480 519" width="480" height="519" role="img" data-kind="xsection" data-theme="dark">
<title>Two cross-sections of the wafer, one above the other. Before the step three blocks of resist stand on a thin purple film over a flat surface with three metal plugs. After it the film is gone wherever the resist was open and the resist is gone too, leaving three thin purple pads, one on each plug, on the flat oxide; the right-hand one runs on over the gate.</title>
<desc>Two cross-sections of the wafer, one above the other. Before the step three blocks of resist stand on a thin purple film over a flat surface with three metal plugs. After it the film is gone wherever the resist was open and the resist is gone too, leaving three thin purple pads, one on each plug, on the flat oxide; the right-hand one runs on over the gate.</desc>
<style>
:root{--bg:#131416;--ink:#e4e6e9;--ink-muted:#a9b1ba;--rule:#3a3f46;--halo:#131416;--accent:#6ab0ff;--inferred:#e0a84a;--m-si-sub:#454b54;--m-well-n:#2b6196;--m-well-p:#8f4468;--m-well-dn:#1f4d7a;--m-sd-n:#5aa5ee;--m-tip-n:#3b78b8;--m-sd-p:#e57db4;--m-implant:#e4e6e9;--m-oxide-thermal:#ecd05a;--m-oxide-dep:#9a8c52;--m-psg:#bdb391;--m-nitride:#2f8f6f;--m-ono:#aab9ea;--m-poly:#d2571f;--m-resist:#7d63bd;--m-arc:#8f6a55;--m-silicide:#46c4ba;--m-barrier:#d8cdf7;--m-tungsten:#98a3af;--m-aluminium:#6c7b8a;--m-mim-diel:#d4ae5c;--m-polyimide:#7a5f40;--ph-feol:#2f5f8d;--pht-feol:#1b2a38;--ph-mol:#8a6a1f;--pht-mol:#2e2717;--ph-beol:#2c7d65;--pht-beol:#182b25;}
text{font-family:-apple-system, BlinkMacSystemFont, 'Segoe UI', Helvetica, Arial, 'Liberation Sans', 'DejaVu Sans', sans-serif;fill:var(--ink)}
.t-panel-title{font-size:14px;font-weight:700}
.t-label-title{font-size:14px;font-weight:600}
.t-label-note{font-size:13px;font-weight:400}
.t-mono{font-size:12.5px;font-weight:400}
.t-mono{font-family:'SFMono-Regular', Menlo, Consolas, 'Liberation Mono', 'DejaVu Sans Mono', monospace}
.muted{fill:var(--ink-muted)}.tag{fill:var(--inferred);font-style:italic}.acc{fill:var(--accent)}
.ground{fill:var(--bg)}.mat{stroke:var(--ink);stroke-width:1.0;stroke-linejoin:round}
.pat{stroke:var(--ink);stroke-width:0.7;opacity:0.38;fill:none}.patdot{fill:var(--ink);opacity:0.38}
.leader{stroke:var(--ink-muted);stroke-width:0.9;fill:none}.halo{stroke:var(--halo);stroke-width:2.6;fill:none;opacity:0.85}.dot{fill:var(--ink)}.mat.faded{fill:none;stroke:var(--ink-muted);stroke-dasharray:3 2}
.patink{stroke:var(--ink);stroke-width:0.8;opacity:0.8;fill:none}
.dim{stroke:var(--ink);stroke-width:0.9;fill:none}.dimhead{fill:var(--ink)}.witness{stroke:var(--ink-muted);stroke-width:0.75;stroke-dasharray:3 2.5;fill:none}
.rule{stroke:var(--rule);stroke-width:0.75;fill:none}.hl{stroke:var(--accent);stroke-width:2.4;fill:none;stroke-linejoin:round;stroke-linecap:round}.parrow{stroke:var(--accent);stroke-width:2.0;fill:none}.pahead{fill:var(--accent)}
.ion{stroke:var(--accent);stroke-width:1.8;fill:none}.ionhead{fill:var(--accent)}
.cbox{fill:var(--bg);stroke:var(--ink);stroke-width:1.0;stroke-linejoin:round}.carrow{stroke:var(--ink-muted);stroke-width:1.6;fill:none}.cahead{fill:var(--ink-muted)}
.m-si-sub{fill:var(--m-si-sub)}.m-well-n{fill:var(--m-well-n)}.m-well-p{fill:var(--m-well-p)}.m-well-dn{fill:var(--m-well-dn)}.m-sd-n{fill:var(--m-sd-n)}.m-tip-n{fill:var(--m-tip-n)}.m-sd-p{fill:var(--m-sd-p)}.m-implant{fill:none}.m-oxide-thermal{fill:var(--m-oxide-thermal)}.m-oxide-dep{fill:var(--m-oxide-dep)}.m-psg{fill:var(--m-psg)}.m-nitride{fill:var(--m-nitride)}.m-ono{fill:var(--m-ono)}.m-poly{fill:var(--m-poly)}.m-resist{fill:var(--m-resist)}.m-arc{fill:var(--m-arc)}.m-silicide{fill:var(--m-silicide)}.m-barrier{fill:var(--m-barrier)}.m-tungsten{fill:var(--m-tungsten)}.m-aluminium{fill:var(--m-aluminium)}.m-mim-diel{fill:var(--m-mim-diel)}.m-polyimide{fill:var(--m-polyimide)}.ph-feol{fill:var(--ph-feol)}.pht-feol{fill:var(--pht-feol)}.ph-mol{fill:var(--ph-mol)}.pht-mol{fill:var(--pht-mol)}.ph-beol{fill:var(--ph-beol)}.pht-beol{fill:var(--pht-beol)}
</style>
<defs><pattern id="p-dots" width="7" height="7" patternUnits="userSpaceOnUse"><circle class="patdot" cx="1.75" cy="1.75" r="0.9"/><circle class="patdot" cx="5.25" cy="5.25" r="0.9"/></pattern><pattern id="p-hatch" width="6" height="6" patternUnits="userSpaceOnUse" patternTransform="rotate(45)"><line class="pat" x1="0" y1="0" x2="0" y2="6"/></pattern><pattern id="p-plus" width="12" height="12" patternUnits="userSpaceOnUse"><path class="pat" d="M3 1V5M1 3H5M9 7V11M7 9H11"/></pattern><pattern id="p-vlines-ink" width="3" height="6" patternUnits="userSpaceOnUse"><line class="patink" x1="1.5" y1="0" x2="1.5" y2="6"/></pattern><pattern id="p-xhatch" width="6" height="6" patternUnits="userSpaceOnUse" patternTransform="rotate(45)"><path class="pat" d="M0 0V6M0 0H6"/></pattern></defs>
<rect class="ground" x="0" y="0" width="480" height="519"/>
<text x="12.0" y="26.0" class="t-panel-title">Before: resist over a pad on each plug (step 102)</text>
<clipPath id="clip1"><rect x="12" y="38.0" width="268" height="171.0"/></clipPath>
<g class="drawing" data-rect="12,38.0,268,171.0" clip-path="url(#clip1)">
<polygon class="mat m-si-sub" data-layer="sub" points="9.00,149.00 44.50,149.00 45.00,154.00 59.00,154.00 59.50,149.00 92.00,149.00 99.00,193.20 99.50,197.00 100.00,199.11 100.50,200.23 101.00,201.06 101.50,201.73 102.00,202.28 102.50,202.76 103.00,203.17 104.00,203.83 105.00,204.31 106.00,204.66 107.00,204.88 108.00,204.99 184.00,204.99 185.00,204.88 186.00,204.66 187.00,204.31 188.00,203.83 189.00,203.17 189.50,202.76 190.00,202.28 190.50,201.73 191.00,201.06 191.50,200.23 192.00,199.11 192.50,197.00 193.00,193.20 200.00,149.00 208.50,149.00 209.00,154.00 223.00,154.00 223.50,149.00 283.00,149.00 283.00,313.00 9.00,313.00"/>
<polygon class="mat m-oxide-thermal faded" data-layer="liner" points="91.75,144.00 92.00,144.00 92.50,147.16 93.00,149.00 97.00,149.00 104.00,193.20 104.50,197.00 105.00,199.11 105.50,199.50 106.50,199.79 107.50,199.95 184.00,199.99 185.00,199.88 186.00,199.66 186.50,199.50 187.00,199.11 187.50,197.00 188.00,193.20 195.00,149.00 199.00,149.00 199.50,147.16 200.00,144.00 200.25,144.00 200.25,149.00 200.00,149.00 193.00,193.20 192.50,197.00 192.00,199.11 191.50,200.23 191.00,201.06 190.50,201.73 190.00,202.28 189.50,202.76 189.00,203.17 188.00,203.83 187.00,204.31 186.00,204.66 185.00,204.88 184.00,204.99 108.00,204.99 107.00,204.88 106.00,204.66 105.00,204.31 104.00,203.83 103.00,203.17 102.50,202.76 102.00,202.28 101.50,201.73 101.00,201.06 100.50,200.23 100.00,199.11 99.50,197.00 99.00,193.20 92.00,149.00 91.75,149.00"/>
<polygon class="mat m-oxide-dep" data-layer="fox" points="91.75,120.00 200.25,120.00 200.25,144.00 200.00,144.00 199.50,147.16 199.00,149.00 195.00,149.00 188.00,193.20 187.50,197.00 187.00,199.11 186.50,199.50 186.00,199.66 185.00,199.88 184.00,199.99 107.50,199.95 106.50,199.79 105.50,199.50 105.00,199.11 104.50,197.00 104.00,193.20 97.00,149.00 93.00,149.00 92.50,147.16 92.00,144.00 91.75,144.00"/>
<polygon class="mat m-oxide-thermal" data-layer="gox" points="9.00,139.00 42.90,139.00 44.50,148.06 44.67,149.00 9.00,149.00"/>
<polygon class="mat m-oxide-thermal" data-layer="gox" points="59.50,148.06 61.10,139.00 91.75,139.00 91.75,149.00 59.33,149.00"/>
<polygon class="mat m-oxide-thermal" data-layer="thinox" points="200.25,144.00 207.50,144.00 208.00,145.22 208.50,148.06 208.67,149.00 200.25,149.00"/>
<polygon class="mat m-oxide-thermal" data-layer="thinox" points="223.50,148.06 224.00,145.22 224.50,144.00 283.00,144.00 283.00,149.00 223.33,149.00"/>
<polygon class="mat m-poly" data-layer="poly" points="119.75,100.00 130.00,100.00 130.50,105.00 161.50,105.00 162.00,100.00 172.25,100.00 172.25,120.00 119.75,120.00"/>
<polygon class="mat m-poly" data-layer="poly" points="247.75,124.00 272.25,124.00 272.25,144.00 247.75,144.00"/>
<polygon class="mat m-nitride" data-layer="nit" points="247.75,114.00 272.25,114.00 272.25,124.00 247.75,124.00"/>
<polygon fill="url(#p-hatch)" points="247.75,114.00 272.25,114.00 272.25,124.00 247.75,124.00"/>
<polygon class="mat m-oxide-dep" data-layer="capox" points="247.75,106.00 272.25,106.00 272.25,114.00 247.75,114.00"/>
<polygon class="mat m-oxide-thermal" data-layer="iox" points="9.00,134.00 42.00,134.00 42.50,136.71 42.92,139.00 9.00,139.00"/>
<polygon class="mat m-oxide-thermal" data-layer="iox" points="61.50,136.71 62.00,134.00 91.75,134.00 91.75,139.00 61.08,139.00"/>
<polygon class="mat m-oxide-thermal" data-layer="iox" points="200.25,139.00 206.50,139.00 207.00,139.55 207.50,142.38 207.78,144.00 200.25,144.00"/>
<polygon class="mat m-oxide-thermal" data-layer="iox" points="224.50,142.38 225.00,139.55 225.50,139.00 242.50,139.00 243.00,124.00 247.75,124.00 247.75,144.00 224.22,144.00"/>
<polygon class="mat m-oxide-thermal" data-layer="iox" points="272.25,124.00 277.00,124.00 277.50,139.00 283.00,139.00 283.00,144.00 272.25,144.00"/>
<polygon class="mat m-nitride" data-layer="spnit" points="112.00,108.00 112.50,105.22 113.00,104.13 113.50,103.34 114.00,102.71 114.50,102.19 115.00,101.76 115.50,101.39 116.00,101.07 117.00,100.58 118.00,100.25 119.00,100.06 119.75,100.02 119.75,120.00 111.50,120.00"/>
<polygon fill="url(#p-hatch)" points="112.00,108.00 112.50,105.22 113.00,104.13 113.50,103.34 114.00,102.71 114.50,102.19 115.00,101.76 115.50,101.39 116.00,101.07 117.00,100.58 118.00,100.25 119.00,100.06 119.75,100.02 119.75,120.00 111.50,120.00"/>
<polygon class="mat m-nitride" data-layer="spnit" points="172.25,100.02 173.00,100.06 174.00,100.25 175.00,100.58 176.00,101.07 176.50,101.39 177.00,101.76 177.50,102.19 178.00,102.71 178.50,103.34 179.00,104.13 179.50,105.22 180.00,108.00 180.50,120.00 172.25,120.00"/>
<polygon fill="url(#p-hatch)" points="172.25,100.02 173.00,100.06 174.00,100.25 175.00,100.58 176.00,101.07 176.50,101.39 177.00,101.76 177.50,102.19 178.00,102.71 178.50,103.34 179.00,104.13 179.50,105.22 180.00,108.00 180.50,120.00 172.25,120.00"/>
<polygon class="mat m-nitride" data-layer="spnit" points="235.00,132.00 235.50,129.22 236.00,128.13 236.50,127.34 237.00,126.71 237.50,126.19 238.00,125.76 238.50,125.39 239.00,125.07 239.50,124.81 240.00,114.00 240.50,111.22 241.00,110.13 241.50,109.34 242.00,108.71 242.50,108.19 243.00,107.76 243.50,107.39 244.00,107.07 245.00,106.58 246.00,106.25 247.00,106.06 247.75,106.02 247.75,124.00 243.00,124.00 242.50,139.00 234.50,139.00"/>
<polygon fill="url(#p-hatch)" points="235.00,132.00 235.50,129.22 236.00,128.13 236.50,127.34 237.00,126.71 237.50,126.19 238.00,125.76 238.50,125.39 239.00,125.07 239.50,124.81 240.00,114.00 240.50,111.22 241.00,110.13 241.50,109.34 242.00,108.71 242.50,108.19 243.00,107.76 243.50,107.39 244.00,107.07 245.00,106.58 246.00,106.25 247.00,106.06 247.75,106.02 247.75,124.00 243.00,124.00 242.50,139.00 234.50,139.00"/>
<polygon class="mat m-nitride" data-layer="spnit" points="272.25,106.02 273.00,106.06 274.00,106.25 275.00,106.58 276.00,107.07 276.50,107.39 277.00,107.76 277.50,108.19 278.00,108.71 278.50,109.34 279.00,110.13 279.50,111.22 280.00,114.00 283.00,114.00 283.00,139.00 277.50,139.00 277.00,124.00 272.25,124.00"/>
<polygon fill="url(#p-hatch)" points="272.25,106.02 273.00,106.06 274.00,106.25 275.00,106.58 276.00,107.07 276.50,107.39 277.00,107.76 277.50,108.19 278.00,108.71 278.50,109.34 279.00,110.13 279.50,111.22 280.00,114.00 283.00,114.00 283.00,139.00 277.50,139.00 277.00,124.00 272.25,124.00"/>
<polygon class="mat m-oxide-dep" data-layer="spox" points="9.00,129.00 41.00,129.00 41.50,131.04 42.00,133.88 42.02,134.00 9.00,134.00"/>
<polygon class="mat m-oxide-dep" data-layer="spox" points="62.00,133.88 62.50,131.04 63.00,129.00 86.50,129.00 87.00,120.00 87.50,117.82 88.00,117.00 88.50,116.43 89.00,116.00 89.50,115.67 90.00,115.42 90.50,115.23 91.00,115.10 91.50,115.03 106.50,115.00 107.00,108.00 107.50,105.22 108.00,103.04 108.50,101.95 109.50,100.34 110.50,99.14 111.00,98.62 112.00,97.76 113.50,96.74 114.50,96.22 116.00,95.63 117.50,95.24 118.50,95.09 120.00,95.00 129.00,95.00 129.50,97.01 130.00,99.85 130.03,100.00 120.00,100.00 119.00,100.06 118.00,100.25 117.00,100.58 116.00,101.07 115.50,101.39 115.00,101.76 114.50,102.19 114.00,102.71 113.50,103.34 113.00,104.13 112.50,105.22 112.00,108.00 111.50,120.00 92.00,120.00 91.50,134.00 61.98,134.00"/>
<polygon class="mat m-oxide-dep" data-layer="spox" points="162.00,99.85 162.50,97.01 163.00,95.00 172.50,95.02 173.50,95.09 174.50,95.24 176.00,95.63 177.00,96.00 178.50,96.74 179.50,97.39 180.00,97.76 181.00,98.62 182.00,99.71 182.50,100.34 183.50,101.95 184.00,103.04 184.50,105.22 185.00,108.00 185.50,115.00 200.00,115.00 200.50,115.03 201.00,115.10 201.50,115.23 202.00,115.42 202.50,115.67 203.00,116.86 205.00,128.21 205.50,134.00 206.00,134.00 206.50,136.71 206.92,139.00 200.50,139.00 200.00,120.00 180.50,120.00 180.00,108.00 179.50,105.22 179.00,104.13 178.50,103.34 178.00,102.71 177.50,102.19 177.00,101.76 176.50,101.39 176.00,101.07 175.50,100.81 174.50,100.40 173.50,100.14 172.50,100.02 161.97,100.00"/>
<polygon class="mat m-oxide-dep" data-layer="spox" points="225.50,136.71 226.00,134.00 229.50,134.00 230.00,132.00 230.50,129.22 231.00,127.04 231.50,125.95 232.50,124.34 233.50,123.14 234.00,122.62 234.50,122.18 235.00,114.00 235.50,111.22 236.00,109.04 236.50,107.95 237.50,106.34 238.50,105.14 239.00,104.62 240.00,103.76 241.50,102.74 242.50,102.22 244.00,101.63 245.50,101.24 246.50,101.09 248.00,101.00 272.50,101.02 273.50,101.09 274.50,101.24 276.00,101.63 277.00,102.00 278.50,102.74 279.50,103.39 280.00,103.76 283.00,103.76 283.00,114.00 280.00,114.00 279.50,111.22 279.00,110.13 278.50,109.34 278.00,108.71 277.50,108.19 277.00,107.76 276.50,107.39 276.00,107.07 275.50,106.81 274.50,106.40 273.50,106.14 272.50,106.02 248.00,106.00 247.00,106.06 246.00,106.25 245.00,106.58 244.00,107.07 243.50,107.39 243.00,107.76 242.50,108.19 242.00,108.71 241.50,109.34 241.00,110.13 240.50,111.22 240.00,114.00 239.50,124.81 239.00,125.07 238.50,125.39 238.00,125.76 237.50,126.19 237.00,126.71 236.50,127.34 236.00,128.13 235.50,129.22 235.00,132.00 234.50,139.00 225.08,139.00"/>
<polygon class="mat m-psg" data-layer="psg" points="9.00,90.00 34.26,90.00 41.00,128.21 41.14,129.00 9.00,129.00"/>
<polygon fill="url(#p-dots)" points="9.00,90.00 34.26,90.00 41.00,128.21 41.14,129.00 9.00,129.00"/>
<polygon class="mat m-psg" data-layer="psg" points="63.00,128.21 69.74,90.00 128.00,90.00 128.50,91.34 129.00,94.18 129.14,95.00 120.00,95.00 118.50,95.09 117.50,95.24 116.00,95.63 114.50,96.22 113.50,96.74 112.00,97.76 111.00,98.62 110.50,99.14 109.50,100.34 108.50,101.95 108.00,103.04 107.50,105.22 107.00,108.00 106.50,115.00 91.50,115.03 91.00,115.10 90.50,115.23 90.00,115.42 89.50,115.67 89.00,116.00 88.50,116.43 88.00,117.00 87.50,117.82 87.00,120.00 86.50,129.00 62.86,129.00"/>
<polygon fill="url(#p-dots)" points="63.00,128.21 69.74,90.00 128.00,90.00 128.50,91.34 129.00,94.18 129.14,95.00 120.00,95.00 118.50,95.09 117.50,95.24 116.00,95.63 114.50,96.22 113.50,96.74 112.00,97.76 111.00,98.62 110.50,99.14 109.50,100.34 108.50,101.95 108.00,103.04 107.50,105.22 107.00,108.00 106.50,115.00 91.50,115.03 91.00,115.10 90.50,115.23 90.00,115.42 89.50,115.67 89.00,116.00 88.50,116.43 88.00,117.00 87.50,117.82 87.00,120.00 86.50,129.00 62.86,129.00"/>
<polygon class="mat m-psg" data-layer="psg" points="163.00,94.18 163.50,91.34 164.00,90.00 198.26,90.00 202.50,114.03 202.79,115.67 202.50,115.67 202.00,115.42 201.50,115.23 201.00,115.10 200.50,115.03 200.00,115.00 185.50,115.00 185.00,108.00 184.50,105.22 184.00,103.04 183.50,101.95 182.50,100.34 182.00,99.71 181.00,98.62 180.00,97.76 179.50,97.39 178.50,96.74 177.00,96.00 176.00,95.63 174.50,95.24 173.50,95.09 172.50,95.02 162.86,95.00"/>
<polygon fill="url(#p-dots)" points="163.00,94.18 163.50,91.34 164.00,90.00 198.26,90.00 202.50,114.03 202.79,115.67 202.50,115.67 202.00,115.42 201.50,115.23 201.00,115.10 200.50,115.03 200.00,115.00 185.50,115.00 185.00,108.00 184.50,105.22 184.00,103.04 183.50,101.95 182.50,100.34 182.00,99.71 181.00,98.62 180.00,97.76 179.50,97.39 178.50,96.74 177.00,96.00 176.00,95.63 174.50,95.24 173.50,95.09 172.50,95.02 162.86,95.00"/>
<polygon class="mat m-psg" data-layer="psg" points="205.25,131.04 205.50,131.04 206.00,133.88 206.02,134.00 205.25,134.00"/>
<polygon fill="url(#p-dots)" points="205.25,131.04 205.50,131.04 206.00,133.88 206.02,134.00 205.25,134.00"/>
<polygon class="mat m-psg" data-layer="psg" points="226.00,133.88 233.74,90.00 283.00,90.00 283.00,103.76 280.00,103.76 279.50,103.39 278.50,102.74 277.00,102.00 276.00,101.63 274.50,101.24 273.50,101.09 272.50,101.02 248.00,101.00 246.50,101.09 245.50,101.24 244.00,101.63 242.50,102.22 241.50,102.74 240.00,103.76 239.00,104.62 238.50,105.14 237.50,106.34 236.50,107.95 236.00,109.04 235.50,111.22 235.00,114.00 234.50,122.18 234.00,122.62 233.50,123.14 232.50,124.34 231.50,125.95 231.00,127.04 230.50,129.22 230.00,132.00 229.50,134.00 225.98,134.00"/>
<polygon fill="url(#p-dots)" points="226.00,133.88 233.74,90.00 283.00,90.00 283.00,103.76 280.00,103.76 279.50,103.39 278.50,102.74 277.00,102.00 276.00,101.63 274.50,101.24 273.50,101.09 272.50,101.02 248.00,101.00 246.50,101.09 245.50,101.24 244.00,101.63 242.50,102.22 241.50,102.74 240.00,103.76 239.00,104.62 238.50,105.14 237.50,106.34 236.50,107.95 236.00,109.04 235.50,111.22 235.00,114.00 234.50,122.18 234.00,122.62 233.50,123.14 232.50,124.34 231.50,125.95 231.00,127.04 230.50,129.22 230.00,132.00 229.50,134.00 225.98,134.00"/>
<polygon class="mat m-oxide-dep" data-layer="ncap" points="9.00,80.00 32.50,80.00 34.00,88.51 34.26,90.00 9.00,90.00"/>
<polygon class="mat m-oxide-dep" data-layer="ncap" points="70.00,88.51 71.50,80.00 126.50,80.00 128.00,88.51 128.26,90.00 69.74,90.00"/>
<polygon class="mat m-oxide-dep" data-layer="ncap" points="164.00,88.51 165.50,80.00 196.50,80.00 198.00,88.51 198.26,90.00 163.74,90.00"/>
<polygon class="mat m-oxide-dep" data-layer="ncap" points="234.00,88.51 235.50,80.00 283.00,80.00 283.00,90.00 233.74,90.00"/>
<polygon class="mat m-barrier" data-layer="ctliner" points="32.75,80.00 37.50,80.00 48.78,144.00 55.22,144.00 66.50,80.00 71.25,80.00 71.25,82.84 71.00,82.84 59.33,149.00 44.67,149.00 33.00,82.84 32.75,82.84"/>
<polygon class="mat m-barrier" data-layer="ctliner" points="126.75,80.00 131.50,80.00 134.14,95.00 157.86,95.00 160.50,80.00 165.25,80.00 165.25,82.84 165.00,82.84 161.97,100.00 130.03,100.00 127.00,82.84 126.75,82.84"/>
<polygon class="mat m-barrier" data-layer="ctliner" points="196.75,80.00 201.50,80.00 212.78,144.00 219.22,144.00 230.50,80.00 235.25,80.00 235.25,82.84 235.00,82.84 223.33,149.00 208.67,149.00 197.00,82.84 196.75,82.84"/>
<polygon class="mat m-silicide" data-layer="sil" points="44.75,149.00 59.25,149.00 59.25,154.00 44.75,154.00"/>
<polygon class="mat m-silicide" data-layer="sil" points="130.25,100.00 161.75,100.00 161.75,105.00 130.25,105.00"/>
<polygon class="mat m-silicide" data-layer="sil" points="208.75,149.00 223.25,149.00 223.25,154.00 208.75,154.00"/>
<polygon class="mat m-tungsten" data-layer="wfill" points="37.75,80.00 66.25,80.00 66.25,82.84 66.00,82.84 55.22,144.00 48.78,144.00 38.00,82.84 37.75,82.84"/>
<polygon fill="url(#p-xhatch)" points="37.75,80.00 66.25,80.00 66.25,82.84 66.00,82.84 55.22,144.00 48.78,144.00 38.00,82.84 37.75,82.84"/>
<polygon class="mat m-tungsten" data-layer="wfill" points="131.75,80.00 160.25,80.00 160.25,82.84 160.00,82.84 157.86,95.00 134.14,95.00 132.00,82.84 131.75,82.84"/>
<polygon fill="url(#p-xhatch)" points="131.75,80.00 160.25,80.00 160.25,82.84 160.00,82.84 157.86,95.00 134.14,95.00 132.00,82.84 131.75,82.84"/>
<polygon class="mat m-tungsten" data-layer="wfill" points="201.75,80.00 230.25,80.00 230.25,82.84 230.00,82.84 219.22,144.00 212.78,144.00 202.00,82.84 201.75,82.84"/>
<polygon fill="url(#p-xhatch)" points="201.75,80.00 230.25,80.00 230.25,82.84 230.00,82.84 219.22,144.00 212.78,144.00 202.00,82.84 201.75,82.84"/>
<polygon class="mat m-barrier" data-layer="li" points="9.00,72.00 283.00,72.00 283.00,80.00 9.00,80.00"/>
<polygon class="mat m-resist" data-layer="li1mres" points="25.75,42.00 78.25,42.00 78.25,72.00 25.75,72.00"/>
<polygon fill="url(#p-dots)" points="25.75,42.00 78.25,42.00 78.25,72.00 25.75,72.00"/>
<polygon class="mat m-resist" data-layer="li1mres" points="119.75,42.00 172.25,42.00 172.25,72.00 119.75,72.00"/>
<polygon fill="url(#p-dots)" points="119.75,42.00 172.25,42.00 172.25,72.00 119.75,72.00"/>
<polygon class="mat m-resist" data-layer="li1mres" points="189.75,42.00 262.25,42.00 262.25,72.00 189.75,72.00"/>
<polygon fill="url(#p-dots)" points="189.75,42.00 262.25,42.00 262.25,72.00 189.75,72.00"/>
<polygon class="mat m-sd-n" data-layer="polyn" points="247.75,124.00 272.25,124.00 272.25,144.00 247.75,144.00"/>
<polygon class="mat m-sd-p" data-layer="polyp" points="119.75,100.00 130.00,100.00 130.50,105.00 161.50,105.00 162.00,100.00 172.25,100.00 172.25,120.00 119.75,120.00"/>
<polygon fill="url(#p-plus)" points="119.75,100.00 130.00,100.00 130.50,105.00 161.50,105.00 162.00,100.00 172.25,100.00 172.25,120.00 119.75,120.00"/>
<polygon class="mat m-implant" data-layer="halo" points="199.75,149.00 208.50,149.00 209.00,154.00 223.00,154.00 223.50,149.00 253.25,149.00 253.25,159.00 199.75,159.00"/>
<polygon fill="url(#p-vlines-ink)" points="199.75,149.00 208.50,149.00 209.00,154.00 223.00,154.00 223.50,149.00 253.25,149.00 253.25,159.00 199.75,159.00"/>
<polygon class="mat m-implant" data-layer="halo" points="266.75,149.00 283.00,149.00 283.00,159.00 266.75,159.00"/>
<polygon fill="url(#p-vlines-ink)" points="266.75,149.00 283.00,149.00 283.00,159.00 266.75,159.00"/>
<polygon class="mat m-tip-n" data-layer="tipn" points="199.75,149.00 208.50,149.00 209.00,154.00 223.00,154.00 223.50,149.00 248.25,149.00 248.25,155.00 199.75,155.00"/>
<polygon fill="url(#p-xhatch)" points="199.75,149.00 208.50,149.00 209.00,154.00 223.00,154.00 223.50,149.00 248.25,149.00 248.25,155.00 199.75,155.00"/>
<polygon class="mat m-tip-n" data-layer="tipn" points="271.75,149.00 283.00,149.00 283.00,155.00 271.75,155.00"/>
<polygon fill="url(#p-xhatch)" points="271.75,149.00 283.00,149.00 283.00,155.00 271.75,155.00"/>
<polygon class="mat m-tip-n" data-layer="hvtip" points="9.00,149.00 44.50,149.00 45.00,154.00 59.00,154.00 59.50,149.00 92.25,149.00 92.25,158.00 9.00,158.00"/>
<polygon fill="url(#p-xhatch)" points="9.00,149.00 44.50,149.00 45.00,154.00 59.00,154.00 59.50,149.00 92.25,149.00 92.25,158.00 9.00,158.00"/>
<polygon class="mat m-sd-n" data-layer="nsd" points="9.00,149.00 44.50,149.00 45.00,154.00 59.00,154.00 59.50,149.00 92.25,149.00 92.25,163.00 9.00,163.00"/>
<polygon class="mat m-sd-n" data-layer="nsd" points="199.75,149.00 208.50,149.00 209.00,154.00 223.00,154.00 223.50,149.00 230.25,149.00 230.25,163.00 199.75,163.00"/>
</g>
<text x="328.0" y="217.9" class="t-label-title" data-owner="sub">Silicon wafer</text>
<path class="leader" data-owner="sub" d="M276.0 201.0H285.0V213.0H324.0"/>
<circle class="dot" data-owner="sub" cx="276.0" cy="201.0" r="1.9"/>
<text x="328.0" y="177.9" class="t-label-title" data-owner="ncap">Cap oxide</text>
<text x="328.0" y="193.9" class="t-label-note muted" data-owner="ncap">NCAPOX, step 091</text>
<path class="leader" data-owner="ncap" d="M276.0 86.5H291.0V173.0H324.0"/>
<circle class="dot" data-owner="ncap" cx="276.0" cy="86.5" r="1.9"/>
<text x="328.0" y="105.9" class="t-label-title" data-owner="li">Local</text>
<text x="328.0" y="121.9" class="t-label-title" data-owner="li">interconnect</text>
<text x="328.0" y="137.9" class="t-label-note muted" data-owner="li">titanium nitride,</text>
<text x="328.0" y="153.9" class="t-label-note muted" data-owner="li">LITIN, step 101</text>
<path class="leader" data-owner="li" d="M276.0 76.0H297.0V101.0H324.0"/>
<circle class="dot" data-owner="li" cx="276.0" cy="76.0" r="1.9"/>
<text x="328.0" y="49.9" class="t-label-title" data-owner="li1mres">Photoresist</text>
<text x="328.0" y="65.9" class="t-label-note muted" data-owner="li1mres">local-interconnect</text>
<text x="328.0" y="81.9" class="t-label-note muted" data-owner="li1mres">mask, step 102</text>
<path class="leader" data-owner="li1mres" d="M258.0 45.5H303.0V45.0H324.0"/>
<circle class="dot" data-owner="li1mres" cx="258.0" cy="45.5" r="1.9"/>
<path class="parrow" d="M34 242.0V280.0"/>
<path class="pahead" d="M34 288.0l-5.5 -9h11.0z"/>
<text x="50.0" y="253.0" class="t-label-title acc">LI1ME, step 103</text>
<text x="50.0" y="268.0" class="t-label-note muted">The titanium nitride is plasma-etched where</text>
<text x="50.0" y="283.0" class="t-label-note muted">the resist is open; the resist is then stripped.</text>
<text x="12.0" y="316.0" class="t-panel-title">After: TiN pads on the plugs, the resist stripped</text>
<clipPath id="clip2"><rect x="12" y="328.0" width="268" height="155.0"/></clipPath>
<g class="drawing" data-rect="12,328.0,268,155.0" clip-path="url(#clip2)">
<polygon class="mat m-si-sub" data-layer="sub" points="9.00,423.00 44.50,423.00 45.00,428.00 59.00,428.00 59.50,423.00 92.00,423.00 99.00,467.20 99.50,471.00 100.00,473.11 100.50,474.23 101.00,475.06 101.50,475.73 102.00,476.28 102.50,476.76 103.00,477.17 104.00,477.83 105.00,478.31 106.00,478.66 107.00,478.88 108.00,478.99 184.00,478.99 185.00,478.88 186.00,478.66 187.00,478.31 188.00,477.83 189.00,477.17 189.50,476.76 190.00,476.28 190.50,475.73 191.00,475.06 191.50,474.23 192.00,473.11 192.50,471.00 193.00,467.20 200.00,423.00 208.50,423.00 209.00,428.00 223.00,428.00 223.50,423.00 283.00,423.00 283.00,587.00 9.00,587.00"/>
<polygon class="mat m-oxide-thermal faded" data-layer="liner" points="91.75,418.00 92.00,418.00 92.50,421.16 93.00,423.00 97.00,423.00 104.00,467.20 104.50,471.00 105.00,473.11 105.50,473.50 106.50,473.79 107.50,473.95 184.00,473.99 185.00,473.88 186.00,473.66 186.50,473.50 187.00,473.11 187.50,471.00 188.00,467.20 195.00,423.00 199.00,423.00 199.50,421.16 200.00,418.00 200.25,418.00 200.25,423.00 200.00,423.00 193.00,467.20 192.50,471.00 192.00,473.11 191.50,474.23 191.00,475.06 190.50,475.73 190.00,476.28 189.50,476.76 189.00,477.17 188.00,477.83 187.00,478.31 186.00,478.66 185.00,478.88 184.00,478.99 108.00,478.99 107.00,478.88 106.00,478.66 105.00,478.31 104.00,477.83 103.00,477.17 102.50,476.76 102.00,476.28 101.50,475.73 101.00,475.06 100.50,474.23 100.00,473.11 99.50,471.00 99.00,467.20 92.00,423.00 91.75,423.00"/>
<polygon class="mat m-oxide-dep" data-layer="fox" points="91.75,394.00 200.25,394.00 200.25,418.00 200.00,418.00 199.50,421.16 199.00,423.00 195.00,423.00 188.00,467.20 187.50,471.00 187.00,473.11 186.50,473.50 186.00,473.66 185.00,473.88 184.00,473.99 107.50,473.95 106.50,473.79 105.50,473.50 105.00,473.11 104.50,471.00 104.00,467.20 97.00,423.00 93.00,423.00 92.50,421.16 92.00,418.00 91.75,418.00"/>
<polygon class="mat m-oxide-thermal" data-layer="gox" points="9.00,413.00 42.90,413.00 44.50,422.06 44.67,423.00 9.00,423.00"/>
<polygon class="mat m-oxide-thermal" data-layer="gox" points="59.50,422.06 61.10,413.00 91.75,413.00 91.75,423.00 59.33,423.00"/>
<polygon class="mat m-oxide-thermal" data-layer="thinox" points="200.25,418.00 207.50,418.00 208.00,419.22 208.50,422.06 208.67,423.00 200.25,423.00"/>
<polygon class="mat m-oxide-thermal" data-layer="thinox" points="223.50,422.06 224.00,419.22 224.50,418.00 283.00,418.00 283.00,423.00 223.33,423.00"/>
<polygon class="mat m-poly" data-layer="poly" points="119.75,374.00 130.00,374.00 130.50,379.00 161.50,379.00 162.00,374.00 172.25,374.00 172.25,394.00 119.75,394.00"/>
<polygon class="mat m-poly" data-layer="poly" points="247.75,398.00 272.25,398.00 272.25,418.00 247.75,418.00"/>
<polygon class="mat m-nitride" data-layer="nit" points="247.75,388.00 272.25,388.00 272.25,398.00 247.75,398.00"/>
<polygon fill="url(#p-hatch)" points="247.75,388.00 272.25,388.00 272.25,398.00 247.75,398.00"/>
<polygon class="mat m-oxide-dep" data-layer="capox" points="247.75,380.00 272.25,380.00 272.25,388.00 247.75,388.00"/>
<polygon class="mat m-oxide-thermal" data-layer="iox" points="9.00,408.00 42.00,408.00 42.50,410.71 42.92,413.00 9.00,413.00"/>
<polygon class="mat m-oxide-thermal" data-layer="iox" points="61.50,410.71 62.00,408.00 91.75,408.00 91.75,413.00 61.08,413.00"/>
<polygon class="mat m-oxide-thermal" data-layer="iox" points="200.25,413.00 206.50,413.00 207.00,413.55 207.50,416.38 207.78,418.00 200.25,418.00"/>
<polygon class="mat m-oxide-thermal" data-layer="iox" points="224.50,416.38 225.00,413.55 225.50,413.00 242.50,413.00 243.00,398.00 247.75,398.00 247.75,418.00 224.22,418.00"/>
<polygon class="mat m-oxide-thermal" data-layer="iox" points="272.25,398.00 277.00,398.00 277.50,413.00 283.00,413.00 283.00,418.00 272.25,418.00"/>
<polygon class="mat m-nitride" data-layer="spnit" points="112.00,382.00 112.50,379.22 113.00,378.13 113.50,377.34 114.00,376.71 114.50,376.19 115.00,375.76 115.50,375.39 116.00,375.07 117.00,374.58 118.00,374.25 119.00,374.06 119.75,374.02 119.75,394.00 111.50,394.00"/>
<polygon fill="url(#p-hatch)" points="112.00,382.00 112.50,379.22 113.00,378.13 113.50,377.34 114.00,376.71 114.50,376.19 115.00,375.76 115.50,375.39 116.00,375.07 117.00,374.58 118.00,374.25 119.00,374.06 119.75,374.02 119.75,394.00 111.50,394.00"/>
<polygon class="mat m-nitride" data-layer="spnit" points="172.25,374.02 173.00,374.06 174.00,374.25 175.00,374.58 176.00,375.07 176.50,375.39 177.00,375.76 177.50,376.19 178.00,376.71 178.50,377.34 179.00,378.13 179.50,379.22 180.00,382.00 180.50,394.00 172.25,394.00"/>
<polygon fill="url(#p-hatch)" points="172.25,374.02 173.00,374.06 174.00,374.25 175.00,374.58 176.00,375.07 176.50,375.39 177.00,375.76 177.50,376.19 178.00,376.71 178.50,377.34 179.00,378.13 179.50,379.22 180.00,382.00 180.50,394.00 172.25,394.00"/>
<polygon class="mat m-nitride" data-layer="spnit" points="235.00,406.00 235.50,403.22 236.00,402.13 236.50,401.34 237.00,400.71 237.50,400.19 238.00,399.76 238.50,399.39 239.00,399.07 239.50,398.81 240.00,388.00 240.50,385.22 241.00,384.13 241.50,383.34 242.00,382.71 242.50,382.19 243.00,381.76 243.50,381.39 244.00,381.07 245.00,380.58 246.00,380.25 247.00,380.06 247.75,380.02 247.75,398.00 243.00,398.00 242.50,413.00 234.50,413.00"/>
<polygon fill="url(#p-hatch)" points="235.00,406.00 235.50,403.22 236.00,402.13 236.50,401.34 237.00,400.71 237.50,400.19 238.00,399.76 238.50,399.39 239.00,399.07 239.50,398.81 240.00,388.00 240.50,385.22 241.00,384.13 241.50,383.34 242.00,382.71 242.50,382.19 243.00,381.76 243.50,381.39 244.00,381.07 245.00,380.58 246.00,380.25 247.00,380.06 247.75,380.02 247.75,398.00 243.00,398.00 242.50,413.00 234.50,413.00"/>
<polygon class="mat m-nitride" data-layer="spnit" points="272.25,380.02 273.00,380.06 274.00,380.25 275.00,380.58 276.00,381.07 276.50,381.39 277.00,381.76 277.50,382.19 278.00,382.71 278.50,383.34 279.00,384.13 279.50,385.22 280.00,388.00 283.00,388.00 283.00,413.00 277.50,413.00 277.00,398.00 272.25,398.00"/>
<polygon fill="url(#p-hatch)" points="272.25,380.02 273.00,380.06 274.00,380.25 275.00,380.58 276.00,381.07 276.50,381.39 277.00,381.76 277.50,382.19 278.00,382.71 278.50,383.34 279.00,384.13 279.50,385.22 280.00,388.00 283.00,388.00 283.00,413.00 277.50,413.00 277.00,398.00 272.25,398.00"/>
<polygon class="mat m-oxide-dep" data-layer="spox" points="9.00,403.00 41.00,403.00 41.50,405.04 42.00,407.88 42.02,408.00 9.00,408.00"/>
<polygon class="mat m-oxide-dep" data-layer="spox" points="62.00,407.88 62.50,405.04 63.00,403.00 86.50,403.00 87.00,394.00 87.50,391.82 88.00,391.00 88.50,390.43 89.00,390.00 89.50,389.67 90.00,389.42 90.50,389.23 91.00,389.10 91.50,389.03 106.50,389.00 107.00,382.00 107.50,379.22 108.00,377.04 108.50,375.95 109.50,374.34 110.50,373.14 111.00,372.62 112.00,371.76 113.50,370.74 114.50,370.22 116.00,369.63 117.50,369.24 118.50,369.09 120.00,369.00 129.00,369.00 129.50,371.01 130.00,373.85 130.03,374.00 120.00,374.00 119.00,374.06 118.00,374.25 117.00,374.58 116.00,375.07 115.50,375.39 115.00,375.76 114.50,376.19 114.00,376.71 113.50,377.34 113.00,378.13 112.50,379.22 112.00,382.00 111.50,394.00 92.00,394.00 91.50,408.00 61.98,408.00"/>
<polygon class="mat m-oxide-dep" data-layer="spox" points="162.00,373.85 162.50,371.01 163.00,369.00 172.50,369.02 173.50,369.09 174.50,369.24 176.00,369.63 177.00,370.00 178.50,370.74 179.50,371.39 180.00,371.76 181.00,372.62 182.00,373.71 182.50,374.34 183.50,375.95 184.00,377.04 184.50,379.22 185.00,382.00 185.50,389.00 200.00,389.00 200.50,389.03 201.00,389.10 201.50,389.23 202.00,389.42 202.50,389.67 203.00,390.86 205.00,402.21 205.50,408.00 206.00,408.00 206.50,410.71 206.92,413.00 200.50,413.00 200.00,394.00 180.50,394.00 180.00,382.00 179.50,379.22 179.00,378.13 178.50,377.34 178.00,376.71 177.50,376.19 177.00,375.76 176.50,375.39 176.00,375.07 175.50,374.81 174.50,374.40 173.50,374.14 172.50,374.02 161.97,374.00"/>
<polygon class="mat m-oxide-dep" data-layer="spox" points="225.50,410.71 226.00,408.00 229.50,408.00 230.00,406.00 230.50,403.22 231.00,401.04 231.50,399.95 232.50,398.34 233.50,397.14 234.00,396.62 234.50,396.18 235.00,388.00 235.50,385.22 236.00,383.04 236.50,381.95 237.50,380.34 238.50,379.14 239.00,378.62 240.00,377.76 241.50,376.74 242.50,376.22 244.00,375.63 245.50,375.24 246.50,375.09 248.00,375.00 272.50,375.02 273.50,375.09 274.50,375.24 276.00,375.63 277.00,376.00 278.50,376.74 279.50,377.39 280.00,377.76 283.00,377.76 283.00,388.00 280.00,388.00 279.50,385.22 279.00,384.13 278.50,383.34 278.00,382.71 277.50,382.19 277.00,381.76 276.50,381.39 276.00,381.07 275.50,380.81 274.50,380.40 273.50,380.14 272.50,380.02 248.00,380.00 247.00,380.06 246.00,380.25 245.00,380.58 244.00,381.07 243.50,381.39 243.00,381.76 242.50,382.19 242.00,382.71 241.50,383.34 241.00,384.13 240.50,385.22 240.00,388.00 239.50,398.81 239.00,399.07 238.50,399.39 238.00,399.76 237.50,400.19 237.00,400.71 236.50,401.34 236.00,402.13 235.50,403.22 235.00,406.00 234.50,413.00 225.08,413.00"/>
<polygon class="mat m-psg" data-layer="psg" points="9.00,364.00 34.26,364.00 41.00,402.21 41.14,403.00 9.00,403.00"/>
<polygon fill="url(#p-dots)" points="9.00,364.00 34.26,364.00 41.00,402.21 41.14,403.00 9.00,403.00"/>
<polygon class="mat m-psg" data-layer="psg" points="63.00,402.21 69.74,364.00 128.00,364.00 128.50,365.34 129.00,368.18 129.14,369.00 120.00,369.00 118.50,369.09 117.50,369.24 116.00,369.63 114.50,370.22 113.50,370.74 112.00,371.76 111.00,372.62 110.50,373.14 109.50,374.34 108.50,375.95 108.00,377.04 107.50,379.22 107.00,382.00 106.50,389.00 91.50,389.03 91.00,389.10 90.50,389.23 90.00,389.42 89.50,389.67 89.00,390.00 88.50,390.43 88.00,391.00 87.50,391.82 87.00,394.00 86.50,403.00 62.86,403.00"/>
<polygon fill="url(#p-dots)" points="63.00,402.21 69.74,364.00 128.00,364.00 128.50,365.34 129.00,368.18 129.14,369.00 120.00,369.00 118.50,369.09 117.50,369.24 116.00,369.63 114.50,370.22 113.50,370.74 112.00,371.76 111.00,372.62 110.50,373.14 109.50,374.34 108.50,375.95 108.00,377.04 107.50,379.22 107.00,382.00 106.50,389.00 91.50,389.03 91.00,389.10 90.50,389.23 90.00,389.42 89.50,389.67 89.00,390.00 88.50,390.43 88.00,391.00 87.50,391.82 87.00,394.00 86.50,403.00 62.86,403.00"/>
<polygon class="mat m-psg" data-layer="psg" points="163.00,368.18 163.50,365.34 164.00,364.00 198.26,364.00 202.50,388.03 202.79,389.67 202.50,389.67 202.00,389.42 201.50,389.23 201.00,389.10 200.50,389.03 200.00,389.00 185.50,389.00 185.00,382.00 184.50,379.22 184.00,377.04 183.50,375.95 182.50,374.34 182.00,373.71 181.00,372.62 180.00,371.76 179.50,371.39 178.50,370.74 177.00,370.00 176.00,369.63 174.50,369.24 173.50,369.09 172.50,369.02 162.86,369.00"/>
<polygon fill="url(#p-dots)" points="163.00,368.18 163.50,365.34 164.00,364.00 198.26,364.00 202.50,388.03 202.79,389.67 202.50,389.67 202.00,389.42 201.50,389.23 201.00,389.10 200.50,389.03 200.00,389.00 185.50,389.00 185.00,382.00 184.50,379.22 184.00,377.04 183.50,375.95 182.50,374.34 182.00,373.71 181.00,372.62 180.00,371.76 179.50,371.39 178.50,370.74 177.00,370.00 176.00,369.63 174.50,369.24 173.50,369.09 172.50,369.02 162.86,369.00"/>
<polygon class="mat m-psg" data-layer="psg" points="205.25,405.04 205.50,405.04 206.00,407.88 206.02,408.00 205.25,408.00"/>
<polygon fill="url(#p-dots)" points="205.25,405.04 205.50,405.04 206.00,407.88 206.02,408.00 205.25,408.00"/>
<polygon class="mat m-psg" data-layer="psg" points="226.00,407.88 233.74,364.00 283.00,364.00 283.00,377.76 280.00,377.76 279.50,377.39 278.50,376.74 277.00,376.00 276.00,375.63 274.50,375.24 273.50,375.09 272.50,375.02 248.00,375.00 246.50,375.09 245.50,375.24 244.00,375.63 242.50,376.22 241.50,376.74 240.00,377.76 239.00,378.62 238.50,379.14 237.50,380.34 236.50,381.95 236.00,383.04 235.50,385.22 235.00,388.00 234.50,396.18 234.00,396.62 233.50,397.14 232.50,398.34 231.50,399.95 231.00,401.04 230.50,403.22 230.00,406.00 229.50,408.00 225.98,408.00"/>
<polygon fill="url(#p-dots)" points="226.00,407.88 233.74,364.00 283.00,364.00 283.00,377.76 280.00,377.76 279.50,377.39 278.50,376.74 277.00,376.00 276.00,375.63 274.50,375.24 273.50,375.09 272.50,375.02 248.00,375.00 246.50,375.09 245.50,375.24 244.00,375.63 242.50,376.22 241.50,376.74 240.00,377.76 239.00,378.62 238.50,379.14 237.50,380.34 236.50,381.95 236.00,383.04 235.50,385.22 235.00,388.00 234.50,396.18 234.00,396.62 233.50,397.14 232.50,398.34 231.50,399.95 231.00,401.04 230.50,403.22 230.00,406.00 229.50,408.00 225.98,408.00"/>
<polygon class="mat m-oxide-dep" data-layer="ncap" points="9.00,354.00 32.50,354.00 34.00,362.51 34.26,364.00 9.00,364.00"/>
<polygon class="mat m-oxide-dep" data-layer="ncap" points="70.00,362.51 71.50,354.00 126.50,354.00 128.00,362.51 128.26,364.00 69.74,364.00"/>
<polygon class="mat m-oxide-dep" data-layer="ncap" points="164.00,362.51 165.50,354.00 196.50,354.00 198.00,362.51 198.26,364.00 163.74,364.00"/>
<polygon class="mat m-oxide-dep" data-layer="ncap" points="234.00,362.51 235.50,354.00 283.00,354.00 283.00,364.00 233.74,364.00"/>
<polygon class="mat m-barrier" data-layer="ctliner" points="32.75,354.00 37.50,354.00 48.78,418.00 55.22,418.00 66.50,354.00 71.25,354.00 71.25,356.84 71.00,356.84 59.33,423.00 44.67,423.00 33.00,356.84 32.75,356.84"/>
<polygon class="mat m-barrier" data-layer="ctliner" points="126.75,354.00 131.50,354.00 134.14,369.00 157.86,369.00 160.50,354.00 165.25,354.00 165.25,356.84 165.00,356.84 161.97,374.00 130.03,374.00 127.00,356.84 126.75,356.84"/>
<polygon class="mat m-barrier" data-layer="ctliner" points="196.75,354.00 201.50,354.00 212.78,418.00 219.22,418.00 230.50,354.00 235.25,354.00 235.25,356.84 235.00,356.84 223.33,423.00 208.67,423.00 197.00,356.84 196.75,356.84"/>
<polygon class="mat m-silicide" data-layer="sil" points="44.75,423.00 59.25,423.00 59.25,428.00 44.75,428.00"/>
<polygon class="mat m-silicide" data-layer="sil" points="130.25,374.00 161.75,374.00 161.75,379.00 130.25,379.00"/>
<polygon class="mat m-silicide" data-layer="sil" points="208.75,423.00 223.25,423.00 223.25,428.00 208.75,428.00"/>
<polygon class="mat m-tungsten" data-layer="wfill" points="37.75,354.00 66.25,354.00 66.25,356.84 66.00,356.84 55.22,418.00 48.78,418.00 38.00,356.84 37.75,356.84"/>
<polygon fill="url(#p-xhatch)" points="37.75,354.00 66.25,354.00 66.25,356.84 66.00,356.84 55.22,418.00 48.78,418.00 38.00,356.84 37.75,356.84"/>
<polygon class="mat m-tungsten" data-layer="wfill" points="131.75,354.00 160.25,354.00 160.25,356.84 160.00,356.84 157.86,369.00 134.14,369.00 132.00,356.84 131.75,356.84"/>
<polygon fill="url(#p-xhatch)" points="131.75,354.00 160.25,354.00 160.25,356.84 160.00,356.84 157.86,369.00 134.14,369.00 132.00,356.84 131.75,356.84"/>
<polygon class="mat m-tungsten" data-layer="wfill" points="201.75,354.00 230.25,354.00 230.25,356.84 230.00,356.84 219.22,418.00 212.78,418.00 202.00,356.84 201.75,356.84"/>
<polygon fill="url(#p-xhatch)" points="201.75,354.00 230.25,354.00 230.25,356.84 230.00,356.84 219.22,418.00 212.78,418.00 202.00,356.84 201.75,356.84"/>
<polygon class="mat m-barrier" data-layer="li" points="25.75,346.00 78.25,346.00 78.25,354.00 25.75,354.00"/>
<polygon class="mat m-barrier" data-layer="li" points="119.75,346.00 172.25,346.00 172.25,354.00 119.75,354.00"/>
<polygon class="mat m-barrier" data-layer="li" points="189.75,346.00 262.25,346.00 262.25,354.00 189.75,354.00"/>
<polygon class="mat m-sd-n" data-layer="polyn" points="247.75,398.00 272.25,398.00 272.25,418.00 247.75,418.00"/>
<polygon class="mat m-sd-p" data-layer="polyp" points="119.75,374.00 130.00,374.00 130.50,379.00 161.50,379.00 162.00,374.00 172.25,374.00 172.25,394.00 119.75,394.00"/>
<polygon fill="url(#p-plus)" points="119.75,374.00 130.00,374.00 130.50,379.00 161.50,379.00 162.00,374.00 172.25,374.00 172.25,394.00 119.75,394.00"/>
<polygon class="mat m-implant" data-layer="halo" points="199.75,423.00 208.50,423.00 209.00,428.00 223.00,428.00 223.50,423.00 253.25,423.00 253.25,433.00 199.75,433.00"/>
<polygon fill="url(#p-vlines-ink)" points="199.75,423.00 208.50,423.00 209.00,428.00 223.00,428.00 223.50,423.00 253.25,423.00 253.25,433.00 199.75,433.00"/>
<polygon class="mat m-implant" data-layer="halo" points="266.75,423.00 283.00,423.00 283.00,433.00 266.75,433.00"/>
<polygon fill="url(#p-vlines-ink)" points="266.75,423.00 283.00,423.00 283.00,433.00 266.75,433.00"/>
<polygon class="mat m-tip-n" data-layer="tipn" points="199.75,423.00 208.50,423.00 209.00,428.00 223.00,428.00 223.50,423.00 248.25,423.00 248.25,429.00 199.75,429.00"/>
<polygon fill="url(#p-xhatch)" points="199.75,423.00 208.50,423.00 209.00,428.00 223.00,428.00 223.50,423.00 248.25,423.00 248.25,429.00 199.75,429.00"/>
<polygon class="mat m-tip-n" data-layer="tipn" points="271.75,423.00 283.00,423.00 283.00,429.00 271.75,429.00"/>
<polygon fill="url(#p-xhatch)" points="271.75,423.00 283.00,423.00 283.00,429.00 271.75,429.00"/>
<polygon class="mat m-tip-n" data-layer="hvtip" points="9.00,423.00 44.50,423.00 45.00,428.00 59.00,428.00 59.50,423.00 92.25,423.00 92.25,432.00 9.00,432.00"/>
<polygon fill="url(#p-xhatch)" points="9.00,423.00 44.50,423.00 45.00,428.00 59.00,428.00 59.50,423.00 92.25,423.00 92.25,432.00 9.00,432.00"/>
<polygon class="mat m-sd-n" data-layer="nsd" points="9.00,423.00 44.50,423.00 45.00,428.00 59.00,428.00 59.50,423.00 92.25,423.00 92.25,437.00 9.00,437.00"/>
<polygon class="mat m-sd-n" data-layer="nsd" points="199.75,423.00 208.50,423.00 209.00,428.00 223.00,428.00 223.50,423.00 230.25,423.00 230.25,437.00 199.75,437.00"/>
<polyline class="hl" points="12.00,351.00 25.50,351.00 26.00,346.00"/>
<polyline class="hl" points="78.00,346.00 78.50,351.00 119.50,351.00 120.00,346.00"/>
<polyline class="hl" points="172.00,346.00 172.50,351.00 189.50,351.00 190.00,346.00"/>
<polyline class="hl" points="262.00,346.00 262.50,351.00 280.00,351.00"/>
</g>
<text x="328.0" y="447.9" class="t-label-title" data-owner="sub">Silicon wafer</text>
<path class="leader" data-owner="sub" d="M276.0 443.0H285.0H324.0"/>
<circle class="dot" data-owner="sub" cx="276.0" cy="443.0" r="1.9"/>
<text x="328.0" y="379.9" class="t-label-title" data-owner="ncap">Cap oxide</text>
<path class="leader" data-owner="ncap" d="M276.0 360.5H291.0V375.0H324.0"/>
<circle class="dot" data-owner="ncap" cx="276.0" cy="360.5" r="1.9"/>
<text x="328.0" y="339.9" class="t-label-title" data-owner="li">Local</text>
<text x="328.0" y="355.9" class="t-label-title" data-owner="li">interconnect</text>
<path class="leader" data-owner="li" d="M249.0 349.5V332.0H297.0V335.0H324.0"/>
<circle class="dot" data-owner="li" cx="249.0" cy="349.5" r="1.9"/>
<text x="12.0" y="507.0" class="t-label-note muted">Not to scale. Thin films are drawn thicker than they are.</text>
</svg>
