<svg xmlns="http://www.w3.org/2000/svg" viewBox="0 0 480 306" width="480" height="306" role="img" data-kind="xsection" data-theme="dark">
<title>One cross-section of the wafer: pad oxide over a P-well on the left and an N-well on the right, which meet under the middle of an oxide-filled trench, with a thin implanted band at the surface of each active area. The drawing is the same as the state before the step.</title>
<desc>One cross-section of the wafer: pad oxide over a P-well on the left and an N-well on the right, which meet under the middle of an oxide-filled trench, with a thin implanted band at the surface of each active area. The drawing is the same as the state before the step.</desc>
<style>
:root{--bg:#131416;--ink:#e4e6e9;--ink-muted:#a9b1ba;--rule:#3a3f46;--halo:#131416;--accent:#6ab0ff;--inferred:#e0a84a;--m-si-sub:#454b54;--m-well-n:#2b6196;--m-well-p:#8f4468;--m-well-dn:#1f4d7a;--m-sd-n:#5aa5ee;--m-sd-p:#e57db4;--m-implant:#e4e6e9;--m-oxide-thermal:#ecd05a;--m-oxide-dep:#9a8c52;--m-psg:#bdb391;--m-nitride:#2f8f6f;--m-ono:#aab9ea;--m-poly:#d2571f;--m-resist:#7d63bd;--m-silicide:#46c4ba;--m-barrier:#d8cdf7;--m-tungsten:#98a3af;--m-aluminium:#6c7b8a;--m-mim-diel:#d4ae5c;--m-polyimide:#7a5f40;--ph-feol:#2f5f8d;--pht-feol:#1b2a38;--ph-mol:#8a6a1f;--pht-mol:#2e2717;--ph-beol:#2c7d65;--pht-beol:#182b25;}
text{font-family:-apple-system, BlinkMacSystemFont, 'Segoe UI', Helvetica, Arial, 'Liberation Sans', 'DejaVu Sans', sans-serif;fill:var(--ink)}
.t-panel-title{font-size:14px;font-weight:700}
.t-label-title{font-size:14px;font-weight:600}
.t-label-note{font-size:13px;font-weight:400}
.t-mono{font-size:12.5px;font-weight:400}
.t-mono{font-family:'SFMono-Regular', Menlo, Consolas, 'Liberation Mono', 'DejaVu Sans Mono', monospace}
.muted{fill:var(--ink-muted)}.tag{fill:var(--inferred);font-style:italic}.acc{fill:var(--accent)}
.ground{fill:var(--bg)}.mat{stroke:var(--ink);stroke-width:1.0;stroke-linejoin:round}
.pat{stroke:var(--ink);stroke-width:0.7;opacity:0.38;fill:none}.patdot{fill:var(--ink);opacity:0.38}
.leader{stroke:var(--ink-muted);stroke-width:0.9;fill:none}.halo{stroke:var(--halo);stroke-width:2.6;fill:none;opacity:0.85}.dot{fill:var(--ink)}.mat.faded{fill:none;stroke:var(--ink-muted);stroke-dasharray:3 2}
.patink{stroke:var(--ink);stroke-width:0.8;opacity:0.8;fill:none}
.dim{stroke:var(--ink);stroke-width:0.9;fill:none}.dimhead{fill:var(--ink)}.witness{stroke:var(--ink-muted);stroke-width:0.75;stroke-dasharray:3 2.5;fill:none}
.rule{stroke:var(--rule);stroke-width:0.75;fill:none}.hl{stroke:var(--accent);stroke-width:2.4;fill:none;stroke-linejoin:round;stroke-linecap:round}.parrow{stroke:var(--accent);stroke-width:2.0;fill:none}.pahead{fill:var(--accent)}
.ion{stroke:var(--accent);stroke-width:1.8;fill:none}.ionhead{fill:var(--accent)}
.cbox{fill:var(--bg);stroke:var(--ink);stroke-width:1.0;stroke-linejoin:round}.carrow{stroke:var(--ink-muted);stroke-width:1.6;fill:none}.cahead{fill:var(--ink-muted)}
.m-si-sub{fill:var(--m-si-sub)}.m-well-n{fill:var(--m-well-n)}.m-well-p{fill:var(--m-well-p)}.m-well-dn{fill:var(--m-well-dn)}.m-sd-n{fill:var(--m-sd-n)}.m-sd-p{fill:var(--m-sd-p)}.m-implant{fill:none}.m-oxide-thermal{fill:var(--m-oxide-thermal)}.m-oxide-dep{fill:var(--m-oxide-dep)}.m-psg{fill:var(--m-psg)}.m-nitride{fill:var(--m-nitride)}.m-ono{fill:var(--m-ono)}.m-poly{fill:var(--m-poly)}.m-resist{fill:var(--m-resist)}.m-silicide{fill:var(--m-silicide)}.m-barrier{fill:var(--m-barrier)}.m-tungsten{fill:var(--m-tungsten)}.m-aluminium{fill:var(--m-aluminium)}.m-mim-diel{fill:var(--m-mim-diel)}.m-polyimide{fill:var(--m-polyimide)}.ph-feol{fill:var(--ph-feol)}.pht-feol{fill:var(--pht-feol)}.ph-mol{fill:var(--ph-mol)}.pht-mol{fill:var(--pht-mol)}.ph-beol{fill:var(--ph-beol)}.pht-beol{fill:var(--pht-beol)}
</style>
<defs><pattern id="p-plus" width="12" height="12" patternUnits="userSpaceOnUse"><path class="pat" d="M3 1V5M1 3H5M9 7V11M7 9H11"/></pattern></defs>
<rect class="ground" x="0" y="0" width="480" height="306"/>
<text x="12.0" y="26.0" class="t-panel-title">State at this step (no drawn change)</text>
<clipPath id="clip1"><rect x="12" y="38.0" width="268" height="179.0"/></clipPath>
<g class="drawing" data-rect="12,38.0,268,179.0" clip-path="url(#clip1)">
<polygon class="mat m-si-sub" data-layer="sub" points="9.00,89.00 92.00,89.00 99.00,133.20 99.50,137.00 100.00,139.11 100.50,140.23 101.00,141.06 101.50,141.73 102.00,142.28 102.50,142.76 103.00,143.17 104.00,143.83 105.00,144.31 106.00,144.66 107.00,144.88 108.00,144.99 184.00,144.99 185.00,144.88 186.00,144.66 187.00,144.31 188.00,143.83 189.00,143.17 189.50,142.76 190.00,142.28 190.50,141.73 191.00,141.06 191.50,140.23 192.00,139.11 192.50,137.00 193.00,133.20 200.00,89.00 283.00,89.00 283.00,253.00 9.00,253.00"/>
<polygon class="mat m-oxide-thermal" data-layer="padox" points="9.00,84.00 91.75,84.00 91.75,89.00 9.00,89.00"/>
<polygon class="mat m-oxide-thermal" data-layer="padox" points="200.25,84.00 283.00,84.00 283.00,89.00 200.25,89.00"/>
<polygon class="mat m-oxide-thermal faded" data-layer="liner" points="91.75,84.00 92.00,84.00 92.50,87.16 93.00,89.00 97.00,89.00 104.00,133.20 104.50,137.00 105.00,139.11 105.50,139.50 106.50,139.79 107.50,139.95 184.00,139.99 185.00,139.88 186.00,139.66 186.50,139.50 187.00,139.11 187.50,137.00 188.00,133.20 195.00,89.00 199.00,89.00 199.50,87.16 200.00,84.00 200.25,84.00 200.25,89.00 200.00,89.00 193.00,133.20 192.50,137.00 192.00,139.11 191.50,140.23 191.00,141.06 190.50,141.73 190.00,142.28 189.50,142.76 189.00,143.17 188.00,143.83 187.00,144.31 186.00,144.66 185.00,144.88 184.00,144.99 108.00,144.99 107.00,144.88 106.00,144.66 105.00,144.31 104.00,143.83 103.00,143.17 102.50,142.76 102.00,142.28 101.50,141.73 101.00,141.06 100.50,140.23 100.00,139.11 99.50,137.00 99.00,133.20 92.00,89.00 91.75,89.00"/>
<polygon class="mat m-oxide-dep" data-layer="fox" points="91.75,60.00 200.25,60.00 200.25,84.00 200.00,84.00 199.50,87.16 199.00,89.00 195.00,89.00 188.00,133.20 187.50,137.00 187.00,139.11 186.50,139.50 186.00,139.66 185.00,139.88 184.00,139.99 107.50,139.95 106.50,139.79 105.50,139.50 105.00,139.11 104.50,137.00 104.00,133.20 97.00,89.00 93.00,89.00 92.50,87.16 92.00,84.00 91.75,84.00"/>
<polygon class="mat m-well-n" data-layer="nwell" points="146.25,145.00 184.00,144.99 185.00,144.88 186.00,144.66 187.00,144.31 188.00,143.83 189.00,143.17 189.50,142.76 190.00,142.28 190.50,141.73 191.00,141.06 191.50,140.23 192.00,139.11 192.50,137.00 193.00,133.20 200.00,89.00 283.00,89.00 283.00,201.00 146.25,201.00"/>
<polygon class="mat m-well-p" data-layer="pwell" points="9.00,89.00 92.00,89.00 99.00,133.20 99.50,137.00 100.00,139.11 100.50,140.23 101.00,141.06 101.50,141.73 102.00,142.28 102.50,142.76 103.00,143.17 104.00,143.83 105.00,144.31 106.00,144.66 107.00,144.88 108.00,144.99 145.75,145.00 145.75,165.00 9.00,165.00"/>
<polygon fill="url(#p-plus)" points="9.00,89.00 92.00,89.00 99.00,133.20 99.50,137.00 100.00,139.11 100.50,140.23 101.00,141.06 101.50,141.73 102.00,142.28 102.50,142.76 103.00,143.17 104.00,143.83 105.00,144.31 106.00,144.66 107.00,144.88 108.00,144.99 145.75,145.00 145.75,165.00 9.00,165.00"/>
<polygon class="mat m-implant faded" data-layer="chn" points="9.00,89.00 90.25,89.00 90.25,99.00 9.00,99.00"/>
<polygon class="mat m-implant faded" data-layer="chp" points="201.75,89.00 283.00,89.00 283.00,99.00 201.75,99.00"/>
</g>
<text x="328.0" y="257.9" class="t-label-title" data-owner="sub">Silicon wafer</text>
<path class="leader" data-owner="sub" d="M276.0 209.0H285.0V253.0H324.0"/>
<circle class="dot" data-owner="sub" cx="276.0" cy="209.0" r="1.9"/>
<text x="328.0" y="129.9" class="t-label-title" data-owner="padox">Pad oxide</text>
<text x="328.0" y="145.9" class="t-label-note muted" data-owner="padox">from BOX, step 002;</text>
<text x="328.0" y="161.9" class="t-label-note muted" data-owner="padox">still in place, we infer</text>
<text x="328.0" y="177.9" class="t-label-note tag" data-owner="padox">inferred</text>
<path class="leader" data-owner="padox" d="M276.0 86.5H297.0V125.0H324.0"/>
<circle class="dot" data-owner="padox" cx="276.0" cy="86.5" r="1.9"/>
<text x="328.0" y="105.9" class="t-label-title" data-owner="fox">Fill oxide</text>
<path class="leader" data-owner="fox" d="M192.0 63.5V49.0H303.0V101.0H324.0"/>
<circle class="dot" data-owner="fox" cx="192.0" cy="63.5" r="1.9"/>
<text x="328.0" y="201.9" class="t-label-title" data-owner="nwell">N-well</text>
<text x="328.0" y="217.9" class="t-label-note muted" data-owner="nwell">retrograde</text>
<text x="328.0" y="233.9" class="t-label-note muted" data-owner="nwell">(NWI, step 018)</text>
<path class="leader" data-owner="nwell" d="M276.0 177.0H291.0V197.0H324.0"/>
<circle class="dot" data-owner="nwell" cx="276.0" cy="177.0" r="1.9"/>
<text x="328.0" y="49.9" class="t-label-title" data-owner="pwell">P-well</text>
<text x="328.0" y="65.9" class="t-label-note muted" data-owner="pwell">retrograde</text>
<text x="328.0" y="81.9" class="t-label-note muted" data-owner="pwell">(PWI, step 027)</text>
<path class="halo" d="M82.0 92.5L82.0 84.0"/>
<path class="leader" data-owner="pwell" d="M82.0 92.5V42.0H309.0V45.0H324.0"/>
<circle class="dot" data-owner="pwell" cx="82.0" cy="92.5" r="1.9"/>
<text x="12.0" y="294.0" class="t-label-note muted">Not to scale. Thin films are drawn thicker than they are.</text>
</svg>
