<svg xmlns="http://www.w3.org/2000/svg" viewBox="0 0 480 687" width="480" height="687" role="img" data-kind="xsection" data-theme="auto">
<title>Two cross-sections of the wafer, one above the other. Before the step the oxide surface is bare over a P-well on the left and an N-well on the right. After it a thick block of photoresist covers the whole slice: the windows of this mask lie over other devices, not over this pair.</title>
<desc>Two cross-sections of the wafer, one above the other. Before the step the oxide surface is bare over a P-well on the left and an N-well on the right. After it a thick block of photoresist covers the whole slice: the windows of this mask lie over other devices, not over this pair.</desc>
<style>
:root{--bg:#ffffff;--ink:#1b1f24;--ink-muted:#545d68;--rule:#c4cad1;--halo:#ffffff;--accent:#0a58b0;--inferred:#9a5b00;--m-si-sub:#c6cbd1;--m-well-n:#a3cdf5;--m-well-p:#f7b3cd;--m-well-dn:#7fb0e0;--m-sd-n:#2f7fd1;--m-tip-n:#8cc3f2;--m-sd-p:#c43d83;--m-implant:#1b1f24;--m-oxide-thermal:#e3b92e;--m-oxide-dep:#f7e9a8;--m-psg:#efe0b4;--m-nitride:#74c7a5;--m-ono:#2d3e6e;--m-poly:#d9662b;--m-resist:#b49ce0;--m-arc:#8a6a50;--m-silicide:#1f6f6c;--m-barrier:#3d2f5b;--m-tungsten:#5b6673;--m-aluminium:#b3c0cc;--m-mim-diel:#c69a55;--m-polyimide:#dcb98f;--ph-feol:#9cc4ea;--pht-feol:#e7f1fa;--ph-mol:#f0c060;--pht-mol:#fbf1dc;--ph-beol:#86cdb4;--pht-beol:#e4f4ee;}
@media (prefers-color-scheme: dark){:root{--bg:#131416;--ink:#e4e6e9;--ink-muted:#a9b1ba;--rule:#3a3f46;--halo:#131416;--accent:#6ab0ff;--inferred:#e0a84a;--m-si-sub:#454b54;--m-well-n:#2b6196;--m-well-p:#8f4468;--m-well-dn:#1f4d7a;--m-sd-n:#5aa5ee;--m-tip-n:#3b78b8;--m-sd-p:#e57db4;--m-implant:#e4e6e9;--m-oxide-thermal:#ecd05a;--m-oxide-dep:#9a8c52;--m-psg:#bdb391;--m-nitride:#2f8f6f;--m-ono:#aab9ea;--m-poly:#d2571f;--m-resist:#7d63bd;--m-arc:#8f6a55;--m-silicide:#46c4ba;--m-barrier:#d8cdf7;--m-tungsten:#98a3af;--m-aluminium:#6c7b8a;--m-mim-diel:#d4ae5c;--m-polyimide:#7a5f40;--ph-feol:#2f5f8d;--pht-feol:#1b2a38;--ph-mol:#8a6a1f;--pht-mol:#2e2717;--ph-beol:#2c7d65;--pht-beol:#182b25;}}
text{font-family:-apple-system, BlinkMacSystemFont, 'Segoe UI', Helvetica, Arial, 'Liberation Sans', 'DejaVu Sans', sans-serif;fill:var(--ink)}
.t-panel-title{font-size:14px;font-weight:700}
.t-label-title{font-size:14px;font-weight:600}
.t-label-note{font-size:13px;font-weight:400}
.t-mono{font-size:12.5px;font-weight:400}
.t-mono{font-family:'SFMono-Regular', Menlo, Consolas, 'Liberation Mono', 'DejaVu Sans Mono', monospace}
.muted{fill:var(--ink-muted)}.tag{fill:var(--inferred);font-style:italic}.acc{fill:var(--accent)}
.ground{fill:var(--bg)}.mat{stroke:var(--ink);stroke-width:1.0;stroke-linejoin:round}
.pat{stroke:var(--ink);stroke-width:0.7;opacity:0.38;fill:none}.patdot{fill:var(--ink);opacity:0.38}
.leader{stroke:var(--ink-muted);stroke-width:0.9;fill:none}.halo{stroke:var(--halo);stroke-width:2.6;fill:none;opacity:0.85}.dot{fill:var(--ink)}.mat.faded{fill:none;stroke:var(--ink-muted);stroke-dasharray:3 2}
.patink{stroke:var(--ink);stroke-width:0.8;opacity:0.8;fill:none}
.dim{stroke:var(--ink);stroke-width:0.9;fill:none}.dimhead{fill:var(--ink)}.witness{stroke:var(--ink-muted);stroke-width:0.75;stroke-dasharray:3 2.5;fill:none}
.rule{stroke:var(--rule);stroke-width:0.75;fill:none}.hl{stroke:var(--accent);stroke-width:2.4;fill:none;stroke-linejoin:round;stroke-linecap:round}.parrow{stroke:var(--accent);stroke-width:2.0;fill:none}.pahead{fill:var(--accent)}
.ion{stroke:var(--accent);stroke-width:1.8;fill:none}.ionhead{fill:var(--accent)}
.cbox{fill:var(--bg);stroke:var(--ink);stroke-width:1.0;stroke-linejoin:round}.carrow{stroke:var(--ink-muted);stroke-width:1.6;fill:none}.cahead{fill:var(--ink-muted)}
.m-si-sub{fill:var(--m-si-sub)}.m-well-n{fill:var(--m-well-n)}.m-well-p{fill:var(--m-well-p)}.m-well-dn{fill:var(--m-well-dn)}.m-sd-n{fill:var(--m-sd-n)}.m-tip-n{fill:var(--m-tip-n)}.m-sd-p{fill:var(--m-sd-p)}.m-implant{fill:none}.m-oxide-thermal{fill:var(--m-oxide-thermal)}.m-oxide-dep{fill:var(--m-oxide-dep)}.m-psg{fill:var(--m-psg)}.m-nitride{fill:var(--m-nitride)}.m-ono{fill:var(--m-ono)}.m-poly{fill:var(--m-poly)}.m-resist{fill:var(--m-resist)}.m-arc{fill:var(--m-arc)}.m-silicide{fill:var(--m-silicide)}.m-barrier{fill:var(--m-barrier)}.m-tungsten{fill:var(--m-tungsten)}.m-aluminium{fill:var(--m-aluminium)}.m-mim-diel{fill:var(--m-mim-diel)}.m-polyimide{fill:var(--m-polyimide)}.ph-feol{fill:var(--ph-feol)}.pht-feol{fill:var(--pht-feol)}.ph-mol{fill:var(--ph-mol)}.pht-mol{fill:var(--pht-mol)}.ph-beol{fill:var(--ph-beol)}.pht-beol{fill:var(--pht-beol)}
</style>
<defs><pattern id="p-dots" width="7" height="7" patternUnits="userSpaceOnUse"><circle class="patdot" cx="1.75" cy="1.75" r="0.9"/><circle class="patdot" cx="5.25" cy="5.25" r="0.9"/></pattern><pattern id="p-plus" width="12" height="12" patternUnits="userSpaceOnUse"><path class="pat" d="M3 1V5M1 3H5M9 7V11M7 9H11"/></pattern></defs>
<rect class="ground" x="0" y="0" width="480" height="687"/>
<text x="12.0" y="26.0" class="t-panel-title">Before: the cleaned wafer after PWIS</text>
<text x="12.0" y="44.0" class="t-panel-title">(step 029); NMOS left, PMOS right</text>
<clipPath id="clip1"><rect x="12" y="56.0" width="268" height="197.7"/></clipPath>
<g class="drawing" data-rect="12,56.0,268,197.7" clip-path="url(#clip1)">
<polygon class="mat m-si-sub" data-layer="sub" points="9.00,114.00 92.00,114.00 99.00,158.20 99.50,162.00 100.00,164.11 100.50,165.23 101.00,166.06 101.50,166.73 102.00,167.28 102.50,167.76 103.00,168.17 104.00,168.83 105.00,169.31 106.00,169.66 107.00,169.88 108.00,169.99 184.00,169.99 185.00,169.88 186.00,169.66 187.00,169.31 188.00,168.83 189.00,168.17 189.50,167.76 190.00,167.28 190.50,166.73 191.00,166.06 191.50,165.23 192.00,164.11 192.50,162.00 193.00,158.20 200.00,114.00 283.00,114.00 283.00,278.00 9.00,278.00"/>
<polygon class="mat m-oxide-thermal" data-layer="padox" points="9.00,109.00 91.75,109.00 91.75,114.00 9.00,114.00"/>
<polygon class="mat m-oxide-thermal" data-layer="padox" points="200.25,109.00 283.00,109.00 283.00,114.00 200.25,114.00"/>
<polygon class="mat m-oxide-thermal faded" data-layer="liner" points="91.75,109.00 92.00,109.00 92.50,112.16 93.00,114.00 97.00,114.00 104.00,158.20 104.50,162.00 105.00,164.11 105.50,164.50 106.50,164.79 107.50,164.95 184.00,164.99 185.00,164.88 186.00,164.66 186.50,164.50 187.00,164.11 187.50,162.00 188.00,158.20 195.00,114.00 199.00,114.00 199.50,112.16 200.00,109.00 200.25,109.00 200.25,114.00 200.00,114.00 193.00,158.20 192.50,162.00 192.00,164.11 191.50,165.23 191.00,166.06 190.50,166.73 190.00,167.28 189.50,167.76 189.00,168.17 188.00,168.83 187.00,169.31 186.00,169.66 185.00,169.88 184.00,169.99 108.00,169.99 107.00,169.88 106.00,169.66 105.00,169.31 104.00,168.83 103.00,168.17 102.50,167.76 102.00,167.28 101.50,166.73 101.00,166.06 100.50,165.23 100.00,164.11 99.50,162.00 99.00,158.20 92.00,114.00 91.75,114.00"/>
<polygon class="mat m-oxide-dep" data-layer="fox" points="91.75,85.00 200.25,85.00 200.25,109.00 200.00,109.00 199.50,112.16 199.00,114.00 195.00,114.00 188.00,158.20 187.50,162.00 187.00,164.11 186.50,164.50 186.00,164.66 185.00,164.88 184.00,164.99 107.50,164.95 106.50,164.79 105.50,164.50 105.00,164.11 104.50,162.00 104.00,158.20 97.00,114.00 93.00,114.00 92.50,112.16 92.00,109.00 91.75,109.00"/>
<polygon class="mat m-well-n" data-layer="nwell" points="146.25,170.00 184.00,169.99 185.00,169.88 186.00,169.66 187.00,169.31 188.00,168.83 189.00,168.17 189.50,167.76 190.00,167.28 190.50,166.73 191.00,166.06 191.50,165.23 192.00,164.11 192.50,162.00 193.00,158.20 200.00,114.00 283.00,114.00 283.00,226.00 146.25,226.00"/>
<polygon class="mat m-well-p" data-layer="pwell" points="9.00,114.00 92.00,114.00 99.00,158.20 99.50,162.00 100.00,164.11 100.50,165.23 101.00,166.06 101.50,166.73 102.00,167.28 102.50,167.76 103.00,168.17 104.00,168.83 105.00,169.31 106.00,169.66 107.00,169.88 108.00,169.99 145.75,170.00 145.75,190.00 9.00,190.00"/>
<polygon fill="url(#p-plus)" points="9.00,114.00 92.00,114.00 99.00,158.20 99.50,162.00 100.00,164.11 100.50,165.23 101.00,166.06 101.50,166.73 102.00,167.28 102.50,167.76 103.00,168.17 104.00,168.83 105.00,169.31 106.00,169.66 107.00,169.88 108.00,169.99 145.75,170.00 145.75,190.00 9.00,190.00"/>
<polygon class="mat m-implant faded" data-layer="chn" points="9.00,114.00 90.25,114.00 90.25,124.00 9.00,124.00"/>
<polygon class="mat m-implant faded" data-layer="chp" points="201.75,114.00 283.00,114.00 283.00,124.00 201.75,124.00"/>
</g>
<text x="328.0" y="275.9" class="t-label-title" data-owner="sub">Silicon wafer</text>
<path class="leader" data-owner="sub" d="M276.0 234.0H285.0V271.0H324.0"/>
<circle class="dot" data-owner="sub" cx="276.0" cy="234.0" r="1.9"/>
<text x="328.0" y="147.9" class="t-label-title" data-owner="padox">Pad oxide</text>
<text x="328.0" y="163.9" class="t-label-note muted" data-owner="padox">from BOX, step 002;</text>
<text x="328.0" y="179.9" class="t-label-note muted" data-owner="padox">still in place, we infer</text>
<text x="328.0" y="195.9" class="t-label-note tag" data-owner="padox">inferred</text>
<path class="leader" data-owner="padox" d="M276.0 111.5H297.0V143.0H324.0"/>
<circle class="dot" data-owner="padox" cx="276.0" cy="111.5" r="1.9"/>
<text x="328.0" y="123.9" class="t-label-title" data-owner="fox">Fill oxide</text>
<path class="leader" data-owner="fox" d="M188.0 88.5V71.0H303.0V119.0H324.0"/>
<circle class="dot" data-owner="fox" cx="188.0" cy="88.5" r="1.9"/>
<text x="328.0" y="219.9" class="t-label-title" data-owner="nwell">N-well</text>
<text x="328.0" y="235.9" class="t-label-note muted" data-owner="nwell">retrograde</text>
<text x="328.0" y="251.9" class="t-label-note muted" data-owner="nwell">(NWI, step 018)</text>
<path class="leader" data-owner="nwell" d="M276.0 202.0H291.0V215.0H324.0"/>
<circle class="dot" data-owner="nwell" cx="276.0" cy="202.0" r="1.9"/>
<text x="328.0" y="67.9" class="t-label-title" data-owner="pwell">P-well</text>
<text x="328.0" y="83.9" class="t-label-note muted" data-owner="pwell">retrograde</text>
<text x="328.0" y="99.9" class="t-label-note muted" data-owner="pwell">(PWI, step 027)</text>
<path class="halo" d="M78.0 117.5L78.0 109.0"/>
<path class="leader" data-owner="pwell" d="M78.0 117.5V60.0H309.0V63.0H324.0"/>
<circle class="dot" data-owner="pwell" cx="78.0" cy="117.5" r="1.9"/>
<path class="parrow" d="M34 300.0V338.0"/>
<path class="pahead" d="M34 346.0l-5.5 -9h11.0z"/>
<text x="50.0" y="311.0" class="t-label-title acc">PWDEM, step 030</text>
<text x="50.0" y="326.0" class="t-label-note muted">A resist, thick on this reference&#x27;s inference, is coated, exposed</text>
<text x="50.0" y="341.0" class="t-label-note muted">through the drain-extended P-well mask and developed.</text>
<text x="12.0" y="374.0" class="t-panel-title">After: thick resist over the whole</text>
<text x="12.0" y="392.0" class="t-panel-title">slice; the windows are elsewhere</text>
<clipPath id="clip2"><rect x="12" y="404.0" width="268" height="238.0"/></clipPath>
<g class="drawing" data-rect="12,404.0,268,238.0" clip-path="url(#clip2)">
<polygon class="mat m-si-sub" data-layer="sub" points="9.00,514.00 92.00,514.00 99.00,558.20 99.50,562.00 100.00,564.11 100.50,565.23 101.00,566.06 101.50,566.73 102.00,567.28 102.50,567.76 103.00,568.17 104.00,568.83 105.00,569.31 106.00,569.66 107.00,569.88 108.00,569.99 184.00,569.99 185.00,569.88 186.00,569.66 187.00,569.31 188.00,568.83 189.00,568.17 189.50,567.76 190.00,567.28 190.50,566.73 191.00,566.06 191.50,565.23 192.00,564.11 192.50,562.00 193.00,558.20 200.00,514.00 283.00,514.00 283.00,678.00 9.00,678.00"/>
<polygon class="mat m-oxide-thermal" data-layer="padox" points="9.00,509.00 91.75,509.00 91.75,514.00 9.00,514.00"/>
<polygon class="mat m-oxide-thermal" data-layer="padox" points="200.25,509.00 283.00,509.00 283.00,514.00 200.25,514.00"/>
<polygon class="mat m-oxide-thermal faded" data-layer="liner" points="91.75,509.00 92.00,509.00 92.50,512.16 93.00,514.00 97.00,514.00 104.00,558.20 104.50,562.00 105.00,564.11 105.50,564.50 106.50,564.79 107.50,564.95 184.00,564.99 185.00,564.88 186.00,564.66 186.50,564.50 187.00,564.11 187.50,562.00 188.00,558.20 195.00,514.00 199.00,514.00 199.50,512.16 200.00,509.00 200.25,509.00 200.25,514.00 200.00,514.00 193.00,558.20 192.50,562.00 192.00,564.11 191.50,565.23 191.00,566.06 190.50,566.73 190.00,567.28 189.50,567.76 189.00,568.17 188.00,568.83 187.00,569.31 186.00,569.66 185.00,569.88 184.00,569.99 108.00,569.99 107.00,569.88 106.00,569.66 105.00,569.31 104.00,568.83 103.00,568.17 102.50,567.76 102.00,567.28 101.50,566.73 101.00,566.06 100.50,565.23 100.00,564.11 99.50,562.00 99.00,558.20 92.00,514.00 91.75,514.00"/>
<polygon class="mat m-oxide-dep" data-layer="fox" points="91.75,485.00 200.25,485.00 200.25,509.00 200.00,509.00 199.50,512.16 199.00,514.00 195.00,514.00 188.00,558.20 187.50,562.00 187.00,564.11 186.50,564.50 186.00,564.66 185.00,564.88 184.00,564.99 107.50,564.95 106.50,564.79 105.50,564.50 105.00,564.11 104.50,562.00 104.00,558.20 97.00,514.00 93.00,514.00 92.50,512.16 92.00,509.00 91.75,509.00"/>
<polygon class="mat m-resist" data-layer="pwderes" points="9.00,433.00 283.00,433.00 283.00,509.00 200.50,509.00 200.00,485.00 92.00,485.00 91.50,509.00 9.00,509.00"/>
<polygon fill="url(#p-dots)" points="9.00,433.00 283.00,433.00 283.00,509.00 200.50,509.00 200.00,485.00 92.00,485.00 91.50,509.00 9.00,509.00"/>
<polygon class="mat m-well-n" data-layer="nwell" points="146.25,570.00 184.00,569.99 185.00,569.88 186.00,569.66 187.00,569.31 188.00,568.83 189.00,568.17 189.50,567.76 190.00,567.28 190.50,566.73 191.00,566.06 191.50,565.23 192.00,564.11 192.50,562.00 193.00,558.20 200.00,514.00 283.00,514.00 283.00,626.00 146.25,626.00"/>
<polygon class="mat m-well-p" data-layer="pwell" points="9.00,514.00 92.00,514.00 99.00,558.20 99.50,562.00 100.00,564.11 100.50,565.23 101.00,566.06 101.50,566.73 102.00,567.28 102.50,567.76 103.00,568.17 104.00,568.83 105.00,569.31 106.00,569.66 107.00,569.88 108.00,569.99 145.75,570.00 145.75,590.00 9.00,590.00"/>
<polygon fill="url(#p-plus)" points="9.00,514.00 92.00,514.00 99.00,558.20 99.50,562.00 100.00,564.11 100.50,565.23 101.00,566.06 101.50,566.73 102.00,567.28 102.50,567.76 103.00,568.17 104.00,568.83 105.00,569.31 106.00,569.66 107.00,569.88 108.00,569.99 145.75,570.00 145.75,590.00 9.00,590.00"/>
<polygon class="mat m-implant faded" data-layer="chn" points="9.00,514.00 90.25,514.00 90.25,524.00 9.00,524.00"/>
<polygon class="mat m-implant faded" data-layer="chp" points="201.75,514.00 283.00,514.00 283.00,524.00 201.75,524.00"/>
<polyline class="hl" points="12.00,430.00 280.00,430.00"/>
</g>
<text x="328.0" y="638.9" class="t-label-title" data-owner="sub">Silicon wafer</text>
<path class="leader" data-owner="sub" d="M276.0 634.0H285.0H324.0"/>
<circle class="dot" data-owner="sub" cx="276.0" cy="634.0" r="1.9"/>
<text x="328.0" y="535.9" class="t-label-title" data-owner="padox">Pad oxide</text>
<text x="328.0" y="551.9" class="t-label-note tag" data-owner="padox">inferred</text>
<path class="leader" data-owner="padox" d="M276.0 511.5H297.0V531.0H324.0"/>
<circle class="dot" data-owner="padox" cx="276.0" cy="511.5" r="1.9"/>
<text x="328.0" y="439.9" class="t-label-title" data-owner="fox">Fill oxide</text>
<path class="halo" d="M188.0 484.5L188.0 433.0"/>
<path class="halo" d="M188.0 427.0L188.0 433.0"/>
<path class="leader" data-owner="fox" d="M188.0 488.5V419.0H309.0V435.0H324.0"/>
<circle class="dot" data-owner="fox" cx="188.0" cy="488.5" r="1.9"/>
<text x="328.0" y="606.9" class="t-label-title" data-owner="nwell">N-well</text>
<path class="leader" data-owner="nwell" d="M276.0 602.0H291.0H324.0"/>
<circle class="dot" data-owner="nwell" cx="276.0" cy="602.0" r="1.9"/>
<text x="328.0" y="415.9" class="t-label-title" data-owner="pwell">P-well</text>
<path class="halo" d="M78.0 517.5L78.0 433.0"/>
<path class="halo" d="M78.0 427.0L78.0 433.0"/>
<path class="leader" data-owner="pwell" d="M78.0 517.5V408.0H315.0V411.0H324.0"/>
<circle class="dot" data-owner="pwell" cx="78.0" cy="517.5" r="1.9"/>
<text x="328.0" y="463.9" class="t-label-title" data-owner="pwderes">Thick photoresist</text>
<text x="328.0" y="479.9" class="t-label-note muted" data-owner="pwderes">PWDEM, step 030;</text>
<text x="328.0" y="495.9" class="t-label-note muted" data-owner="pwderes">it opens only inside</text>
<text x="328.0" y="511.9" class="t-label-note muted" data-owner="pwderes">deep-N-well tubs</text>
<path class="leader" data-owner="pwderes" d="M276.0 459.0H303.0H324.0"/>
<circle class="dot" data-owner="pwderes" cx="276.0" cy="459.0" r="1.9"/>
<text x="12.0" y="675.0" class="t-label-note muted">Not to scale. Thin films are drawn thicker than they are.</text>
</svg>
