<svg xmlns="http://www.w3.org/2000/svg" viewBox="0 0 480 622" width="480" height="622" role="img" data-kind="xsection" data-theme="auto">
<title>Two cross-sections of the wafer, one above the other. Before the step the oxide surface is bare, with an N-well on the right. After it a thick block of photoresist covers the right-hand part of the drawing over the N-well, and the left-hand active area and the left half of the trench lie in an open window.</title>
<desc>Two cross-sections of the wafer, one above the other. Before the step the oxide surface is bare, with an N-well on the right. After it a thick block of photoresist covers the right-hand part of the drawing over the N-well, and the left-hand active area and the left half of the trench lie in an open window.</desc>
<style>
:root{--bg:#ffffff;--ink:#1b1f24;--ink-muted:#545d68;--rule:#c4cad1;--halo:#ffffff;--accent:#0a58b0;--inferred:#9a5b00;--m-si-sub:#c6cbd1;--m-well-n:#a3cdf5;--m-well-p:#f7b3cd;--m-well-dn:#7fb0e0;--m-sd-n:#2f7fd1;--m-tip-n:#8cc3f2;--m-sd-p:#c43d83;--m-implant:#1b1f24;--m-oxide-thermal:#e3b92e;--m-oxide-dep:#f7e9a8;--m-psg:#efe0b4;--m-nitride:#74c7a5;--m-ono:#2d3e6e;--m-poly:#d9662b;--m-resist:#b49ce0;--m-arc:#8a6a50;--m-silicide:#1f6f6c;--m-barrier:#3d2f5b;--m-tungsten:#5b6673;--m-aluminium:#b3c0cc;--m-mim-diel:#c69a55;--m-polyimide:#dcb98f;--ph-feol:#9cc4ea;--pht-feol:#e7f1fa;--ph-mol:#f0c060;--pht-mol:#fbf1dc;--ph-beol:#86cdb4;--pht-beol:#e4f4ee;}
@media (prefers-color-scheme: dark){:root{--bg:#131416;--ink:#e4e6e9;--ink-muted:#a9b1ba;--rule:#3a3f46;--halo:#131416;--accent:#6ab0ff;--inferred:#e0a84a;--m-si-sub:#454b54;--m-well-n:#2b6196;--m-well-p:#8f4468;--m-well-dn:#1f4d7a;--m-sd-n:#5aa5ee;--m-tip-n:#3b78b8;--m-sd-p:#e57db4;--m-implant:#e4e6e9;--m-oxide-thermal:#ecd05a;--m-oxide-dep:#9a8c52;--m-psg:#bdb391;--m-nitride:#2f8f6f;--m-ono:#aab9ea;--m-poly:#d2571f;--m-resist:#7d63bd;--m-arc:#8f6a55;--m-silicide:#46c4ba;--m-barrier:#d8cdf7;--m-tungsten:#98a3af;--m-aluminium:#6c7b8a;--m-mim-diel:#d4ae5c;--m-polyimide:#7a5f40;--ph-feol:#2f5f8d;--pht-feol:#1b2a38;--ph-mol:#8a6a1f;--pht-mol:#2e2717;--ph-beol:#2c7d65;--pht-beol:#182b25;}}
text{font-family:-apple-system, BlinkMacSystemFont, 'Segoe UI', Helvetica, Arial, 'Liberation Sans', 'DejaVu Sans', sans-serif;fill:var(--ink)}
.t-panel-title{font-size:14px;font-weight:700}
.t-label-title{font-size:14px;font-weight:600}
.t-label-note{font-size:13px;font-weight:400}
.t-mono{font-size:12.5px;font-weight:400}
.t-mono{font-family:'SFMono-Regular', Menlo, Consolas, 'Liberation Mono', 'DejaVu Sans Mono', monospace}
.muted{fill:var(--ink-muted)}.tag{fill:var(--inferred);font-style:italic}.acc{fill:var(--accent)}
.ground{fill:var(--bg)}.mat{stroke:var(--ink);stroke-width:1.0;stroke-linejoin:round}
.pat{stroke:var(--ink);stroke-width:0.7;opacity:0.38;fill:none}.patdot{fill:var(--ink);opacity:0.38}
.leader{stroke:var(--ink-muted);stroke-width:0.9;fill:none}.halo{stroke:var(--halo);stroke-width:2.6;fill:none;opacity:0.85}.dot{fill:var(--ink)}.mat.faded{fill:none;stroke:var(--ink-muted);stroke-dasharray:3 2}
.patink{stroke:var(--ink);stroke-width:0.8;opacity:0.8;fill:none}
.dim{stroke:var(--ink);stroke-width:0.9;fill:none}.dimhead{fill:var(--ink)}.witness{stroke:var(--ink-muted);stroke-width:0.75;stroke-dasharray:3 2.5;fill:none}
.rule{stroke:var(--rule);stroke-width:0.75;fill:none}.hl{stroke:var(--accent);stroke-width:2.4;fill:none;stroke-linejoin:round;stroke-linecap:round}.parrow{stroke:var(--accent);stroke-width:2.0;fill:none}.pahead{fill:var(--accent)}
.ion{stroke:var(--accent);stroke-width:1.8;fill:none}.ionhead{fill:var(--accent)}
.cbox{fill:var(--bg);stroke:var(--ink);stroke-width:1.0;stroke-linejoin:round}.carrow{stroke:var(--ink-muted);stroke-width:1.6;fill:none}.cahead{fill:var(--ink-muted)}
.m-si-sub{fill:var(--m-si-sub)}.m-well-n{fill:var(--m-well-n)}.m-well-p{fill:var(--m-well-p)}.m-well-dn{fill:var(--m-well-dn)}.m-sd-n{fill:var(--m-sd-n)}.m-tip-n{fill:var(--m-tip-n)}.m-sd-p{fill:var(--m-sd-p)}.m-implant{fill:none}.m-oxide-thermal{fill:var(--m-oxide-thermal)}.m-oxide-dep{fill:var(--m-oxide-dep)}.m-psg{fill:var(--m-psg)}.m-nitride{fill:var(--m-nitride)}.m-ono{fill:var(--m-ono)}.m-poly{fill:var(--m-poly)}.m-resist{fill:var(--m-resist)}.m-arc{fill:var(--m-arc)}.m-silicide{fill:var(--m-silicide)}.m-barrier{fill:var(--m-barrier)}.m-tungsten{fill:var(--m-tungsten)}.m-aluminium{fill:var(--m-aluminium)}.m-mim-diel{fill:var(--m-mim-diel)}.m-polyimide{fill:var(--m-polyimide)}.ph-feol{fill:var(--ph-feol)}.pht-feol{fill:var(--pht-feol)}.ph-mol{fill:var(--ph-mol)}.pht-mol{fill:var(--pht-mol)}.ph-beol{fill:var(--ph-beol)}.pht-beol{fill:var(--pht-beol)}
</style>
<defs><pattern id="p-dots" width="7" height="7" patternUnits="userSpaceOnUse"><circle class="patdot" cx="1.75" cy="1.75" r="0.9"/><circle class="patdot" cx="5.25" cy="5.25" r="0.9"/></pattern></defs>
<rect class="ground" x="0" y="0" width="480" height="622"/>
<text x="12.0" y="26.0" class="t-panel-title">Before: the cleaned wafer after PCHIS</text>
<text x="12.0" y="44.0" class="t-panel-title">(step 025); NMOS left, PMOS right</text>
<clipPath id="clip1"><rect x="12" y="56.0" width="268" height="175.0"/></clipPath>
<g class="drawing" data-rect="12,56.0,268,175.0" clip-path="url(#clip1)">
<polygon class="mat m-si-sub" data-layer="sub" points="9.00,103.00 92.00,103.00 99.00,147.20 99.50,151.00 100.00,153.11 100.50,154.23 101.00,155.06 101.50,155.73 102.00,156.28 102.50,156.76 103.00,157.17 104.00,157.83 105.00,158.31 106.00,158.66 107.00,158.88 108.00,158.99 184.00,158.99 185.00,158.88 186.00,158.66 187.00,158.31 188.00,157.83 189.00,157.17 189.50,156.76 190.00,156.28 190.50,155.73 191.00,155.06 191.50,154.23 192.00,153.11 192.50,151.00 193.00,147.20 200.00,103.00 283.00,103.00 283.00,267.00 9.00,267.00"/>
<polygon class="mat m-oxide-thermal" data-layer="padox" points="9.00,98.00 91.75,98.00 91.75,103.00 9.00,103.00"/>
<polygon class="mat m-oxide-thermal" data-layer="padox" points="200.25,98.00 283.00,98.00 283.00,103.00 200.25,103.00"/>
<polygon class="mat m-oxide-thermal faded" data-layer="liner" points="91.75,98.00 92.00,98.00 92.50,101.16 93.00,103.00 97.00,103.00 104.00,147.20 104.50,151.00 105.00,153.11 105.50,153.50 106.50,153.79 107.50,153.95 184.00,153.99 185.00,153.88 186.00,153.66 186.50,153.50 187.00,153.11 187.50,151.00 188.00,147.20 195.00,103.00 199.00,103.00 199.50,101.16 200.00,98.00 200.25,98.00 200.25,103.00 200.00,103.00 193.00,147.20 192.50,151.00 192.00,153.11 191.50,154.23 191.00,155.06 190.50,155.73 190.00,156.28 189.50,156.76 189.00,157.17 188.00,157.83 187.00,158.31 186.00,158.66 185.00,158.88 184.00,158.99 108.00,158.99 107.00,158.88 106.00,158.66 105.00,158.31 104.00,157.83 103.00,157.17 102.50,156.76 102.00,156.28 101.50,155.73 101.00,155.06 100.50,154.23 100.00,153.11 99.50,151.00 99.00,147.20 92.00,103.00 91.75,103.00"/>
<polygon class="mat m-oxide-dep" data-layer="fox" points="91.75,74.00 200.25,74.00 200.25,98.00 200.00,98.00 199.50,101.16 199.00,103.00 195.00,103.00 188.00,147.20 187.50,151.00 187.00,153.11 186.50,153.50 186.00,153.66 185.00,153.88 184.00,153.99 107.50,153.95 106.50,153.79 105.50,153.50 105.00,153.11 104.50,151.00 104.00,147.20 97.00,103.00 93.00,103.00 92.50,101.16 92.00,98.00 91.75,98.00"/>
<polygon class="mat m-well-n" data-layer="nwell" points="146.25,159.00 184.00,158.99 185.00,158.88 186.00,158.66 187.00,158.31 188.00,157.83 189.00,157.17 189.50,156.76 190.00,156.28 190.50,155.73 191.00,155.06 191.50,154.23 192.00,153.11 192.50,151.00 193.00,147.20 200.00,103.00 283.00,103.00 283.00,215.00 146.25,215.00"/>
<polygon class="mat m-implant faded" data-layer="chn" points="9.00,103.00 90.25,103.00 90.25,113.00 9.00,113.00"/>
<polygon class="mat m-implant faded" data-layer="chp" points="201.75,103.00 283.00,103.00 283.00,113.00 201.75,113.00"/>
</g>
<text x="328.0" y="239.9" class="t-label-title" data-owner="sub">Silicon wafer</text>
<path class="leader" data-owner="sub" d="M276.0 223.0H285.0V235.0H324.0"/>
<circle class="dot" data-owner="sub" cx="276.0" cy="223.0" r="1.9"/>
<text x="328.0" y="105.4" class="t-label-title" data-owner="padox">Pad oxide</text>
<text x="328.0" y="121.4" class="t-label-note muted" data-owner="padox">from BOX, step 002;</text>
<text x="328.0" y="137.4" class="t-label-note muted" data-owner="padox">still in place, we infer</text>
<text x="328.0" y="153.4" class="t-label-note tag" data-owner="padox">inferred</text>
<path class="leader" data-owner="padox" d="M276.0 100.5H297.0H324.0"/>
<circle class="dot" data-owner="padox" cx="276.0" cy="100.5" r="1.9"/>
<text x="328.0" y="67.9" class="t-label-title" data-owner="fox">Fill oxide</text>
<path class="leader" data-owner="fox" d="M188.0 77.5V60.0H303.0V63.0H324.0"/>
<circle class="dot" data-owner="fox" cx="188.0" cy="77.5" r="1.9"/>
<text x="328.0" y="183.9" class="t-label-title" data-owner="nwell">N-well</text>
<text x="328.0" y="199.9" class="t-label-note muted" data-owner="nwell">retrograde</text>
<text x="328.0" y="215.9" class="t-label-note muted" data-owner="nwell">(NWI, step 018)</text>
<path class="leader" data-owner="nwell" d="M276.0 191.0H291.0V179.0H324.0"/>
<circle class="dot" data-owner="nwell" cx="276.0" cy="191.0" r="1.9"/>
<path class="parrow" d="M34 264.0V302.0"/>
<path class="pahead" d="M34 310.0l-5.5 -9h11.0z"/>
<text x="50.0" y="275.0" class="t-label-title acc">PWBM, step 026</text>
<text x="50.0" y="290.0" class="t-label-note muted">A resist, thick on this reference&#x27;s inference, is coated, exposed</text>
<text x="50.0" y="305.0" class="t-label-note muted">and developed so that it stays where no P-well is to go.</text>
<text x="12.0" y="338.0" class="t-panel-title">After: thick resist over the N-well, the NMOS side open</text>
<clipPath id="clip2"><rect x="12" y="350.0" width="268" height="227.0"/></clipPath>
<g class="drawing" data-rect="12,350.0,268,227.0" clip-path="url(#clip2)">
<polygon class="mat m-si-sub" data-layer="sub" points="9.00,449.00 92.00,449.00 99.00,493.20 99.50,497.00 100.00,499.11 100.50,500.23 101.00,501.06 101.50,501.73 102.00,502.28 102.50,502.76 103.00,503.17 104.00,503.83 105.00,504.31 106.00,504.66 107.00,504.88 108.00,504.99 184.00,504.99 185.00,504.88 186.00,504.66 187.00,504.31 188.00,503.83 189.00,503.17 189.50,502.76 190.00,502.28 190.50,501.73 191.00,501.06 191.50,500.23 192.00,499.11 192.50,497.00 193.00,493.20 200.00,449.00 283.00,449.00 283.00,613.00 9.00,613.00"/>
<polygon class="mat m-oxide-thermal" data-layer="padox" points="9.00,444.00 91.75,444.00 91.75,449.00 9.00,449.00"/>
<polygon class="mat m-oxide-thermal" data-layer="padox" points="200.25,444.00 283.00,444.00 283.00,449.00 200.25,449.00"/>
<polygon class="mat m-oxide-thermal faded" data-layer="liner" points="91.75,444.00 92.00,444.00 92.50,447.16 93.00,449.00 97.00,449.00 104.00,493.20 104.50,497.00 105.00,499.11 105.50,499.50 106.50,499.79 107.50,499.95 184.00,499.99 185.00,499.88 186.00,499.66 186.50,499.50 187.00,499.11 187.50,497.00 188.00,493.20 195.00,449.00 199.00,449.00 199.50,447.16 200.00,444.00 200.25,444.00 200.25,449.00 200.00,449.00 193.00,493.20 192.50,497.00 192.00,499.11 191.50,500.23 191.00,501.06 190.50,501.73 190.00,502.28 189.50,502.76 189.00,503.17 188.00,503.83 187.00,504.31 186.00,504.66 185.00,504.88 184.00,504.99 108.00,504.99 107.00,504.88 106.00,504.66 105.00,504.31 104.00,503.83 103.00,503.17 102.50,502.76 102.00,502.28 101.50,501.73 101.00,501.06 100.50,500.23 100.00,499.11 99.50,497.00 99.00,493.20 92.00,449.00 91.75,449.00"/>
<polygon class="mat m-oxide-dep" data-layer="fox" points="91.75,420.00 200.25,420.00 200.25,444.00 200.00,444.00 199.50,447.16 199.00,449.00 195.00,449.00 188.00,493.20 187.50,497.00 187.00,499.11 186.50,499.50 186.00,499.66 185.00,499.88 184.00,499.99 107.50,499.95 106.50,499.79 105.50,499.50 105.00,499.11 104.50,497.00 104.00,493.20 97.00,449.00 93.00,449.00 92.50,447.16 92.00,444.00 91.75,444.00"/>
<polygon class="mat m-resist" data-layer="pwbres" points="145.75,368.00 283.00,368.00 283.00,444.00 200.50,444.00 200.00,420.00 145.75,420.00"/>
<polygon fill="url(#p-dots)" points="145.75,368.00 283.00,368.00 283.00,444.00 200.50,444.00 200.00,420.00 145.75,420.00"/>
<polygon class="mat m-well-n" data-layer="nwell" points="146.25,505.00 184.00,504.99 185.00,504.88 186.00,504.66 187.00,504.31 188.00,503.83 189.00,503.17 189.50,502.76 190.00,502.28 190.50,501.73 191.00,501.06 191.50,500.23 192.00,499.11 192.50,497.00 193.00,493.20 200.00,449.00 283.00,449.00 283.00,561.00 146.25,561.00"/>
<polygon class="mat m-implant faded" data-layer="chn" points="9.00,449.00 90.25,449.00 90.25,459.00 9.00,459.00"/>
<polygon class="mat m-implant faded" data-layer="chp" points="201.75,449.00 283.00,449.00 283.00,459.00 201.75,459.00"/>
<polyline class="hl" points="146.00,365.00 280.00,365.00"/>
</g>
<text x="328.0" y="573.9" class="t-label-title" data-owner="sub">Silicon wafer</text>
<path class="leader" data-owner="sub" d="M276.0 569.0H285.0H324.0"/>
<circle class="dot" data-owner="sub" cx="276.0" cy="569.0" r="1.9"/>
<text x="328.0" y="473.9" class="t-label-title" data-owner="padox">Pad oxide</text>
<text x="328.0" y="489.9" class="t-label-note tag" data-owner="padox">inferred</text>
<path class="leader" data-owner="padox" d="M276.0 446.5H297.0V469.0H324.0"/>
<circle class="dot" data-owner="padox" cx="276.0" cy="446.5" r="1.9"/>
<text x="328.0" y="361.9" class="t-label-title" data-owner="fox">Fill oxide</text>
<path class="leader" data-owner="fox" d="M132.0 423.5V354.0H309.0V357.0H324.0"/>
<circle class="dot" data-owner="fox" cx="132.0" cy="423.5" r="1.9"/>
<text x="328.0" y="541.9" class="t-label-title" data-owner="nwell">N-well</text>
<path class="leader" data-owner="nwell" d="M276.0 537.0H291.0H324.0"/>
<circle class="dot" data-owner="nwell" cx="276.0" cy="537.0" r="1.9"/>
<text x="328.0" y="385.9" class="t-label-title" data-owner="pwbres">Thick photoresist</text>
<text x="328.0" y="401.9" class="t-label-note muted" data-owner="pwbres">PWBM, step 026;</text>
<text x="328.0" y="417.9" class="t-label-note muted" data-owner="pwbres">left over the</text>
<text x="328.0" y="433.9" class="t-label-note muted" data-owner="pwbres">N-well, we infer</text>
<text x="328.0" y="449.9" class="t-label-note tag" data-owner="pwbres">inferred</text>
<path class="leader" data-owner="pwbres" d="M276.0 381.0H303.0H324.0"/>
<circle class="dot" data-owner="pwbres" cx="276.0" cy="381.0" r="1.9"/>
<text x="12.0" y="610.0" class="t-label-note muted">Not to scale. Thin films are drawn thicker than they are.</text>
</svg>
